<?xml version="1.0" standalone="no"?>
<!DOCTYPE svg PUBLIC "-//W3C//DTD SVG 20010904//EN"
 "http://www.w3.org/TR/2001/REC-SVG-20010904/DTD/svg10.dtd">
<svg version="1.0" xmlns="http://www.w3.org/2000/svg"
 width="1080.000000pt" height="1080.000000pt" viewBox="0 0 1080.000000 1080.000000"
 preserveAspectRatio="xMidYMid meet">

<g transform="translate(0.000000,1080.000000) scale(0.100000,-0.100000)"
fill="#000000" stroke="none">
<path d="M6028 10025 c-3 -3 -84 -21 -179 -40 -190 -37 -629 -133 -862 -189
-116 -28 -153 -34 -169 -25 -15 8 -29 7 -57 -5 -20 -8 -108 -32 -196 -52 -88
-20 -169 -40 -180 -44 -38 -14 -522 -130 -544 -130 -23 0 -62 -25 -104 -66
-34 -33 -57 -42 -184 -73 -185 -46 -697 -189 -813 -228 -111 -37 -443 -126
-532 -142 -29 -6 -79 -16 -111 -22 -45 -10 -60 -10 -66 -1 -9 15 -194 -30
-336 -83 -55 -20 -107 -39 -115 -41 -32 -10 -61 -82 -66 -162 -2 -42 -6 -87
-9 -99 -10 -43 19 -191 90 -458 14 -55 35 -145 46 -200 30 -147 129 -565 186
-780 19 -71 41 -164 48 -205 36 -199 103 -507 122 -565 8 -27 28 -75 43 -105
25 -50 68 -217 85 -330 4 -25 17 -88 30 -140 13 -52 35 -153 50 -225 14 -71
46 -210 70 -309 25 -98 45 -190 45 -205 0 -23 -12 -32 -107 -81 -121 -62 -128
-72 -112 -172 5 -29 14 -93 20 -143 12 -108 24 -150 54 -190 12 -17 25 -53 29
-81 3 -28 22 -115 41 -193 19 -78 35 -153 35 -165 0 -20 -15 -30 -113 -71
-130 -55 -171 -88 -170 -137 1 -18 -8 -57 -18 -86 -23 -65 -25 -163 -3 -249
13 -52 13 -65 2 -76 -7 -8 -19 -12 -26 -9 -7 2 -50 -17 -97 -42 -86 -47 -127
-62 -67 -26 82 50 -4 18 -160 -61 -51 -26 -77 -35 -68 -24 12 15 7 14 -30 -5
-25 -12 -53 -29 -62 -38 -10 -8 -18 -13 -18 -9 0 7 -138 -42 -200 -71 -81 -38
-213 -93 -315 -133 -55 -22 -113 -45 -130 -53 -16 -8 -127 -58 -245 -111 -207
-93 -307 -145 -322 -169 -13 -19 -8 -59 11 -102 17 -36 102 -120 207 -202 37
-29 278 -166 335 -190 24 -11 94 -31 154 -46 111 -28 286 -78 425 -121 92 -29
230 -82 330 -128 41 -19 109 -44 150 -56 41 -13 112 -38 158 -57 111 -46 227
-87 402 -141 214 -67 265 -82 370 -109 62 -16 147 -51 245 -99 160 -80 287
-129 437 -169 116 -32 283 -87 325 -110 51 -26 370 -146 448 -168 38 -10 121
-37 185 -60 63 -22 186 -64 272 -93 160 -55 248 -94 283 -125 11 -10 38 -23
60 -30 22 -7 68 -25 103 -41 78 -36 82 -36 42 -2 -18 14 -46 28 -63 30 -18 2
-38 10 -47 19 -13 13 -13 14 2 9 9 -4 43 -13 75 -20 32 -7 78 -21 103 -30 29
-11 61 -15 89 -12 25 3 65 -1 90 -9 25 -8 55 -14 66 -14 21 0 158 76 198 110
90 75 139 110 148 105 5 -4 8 -1 7 5 -3 11 29 32 207 135 47 28 125 75 173
106 48 31 102 60 119 64 18 3 31 11 30 16 -1 6 84 63 189 128 105 65 229 142
275 172 46 31 120 78 164 107 44 28 121 78 170 112 50 33 140 92 200 131 61
39 162 108 225 153 325 232 463 322 624 405 89 46 98 48 89 24 -6 -16 -5 -16
10 -4 10 8 15 16 12 19 -7 7 144 104 154 98 8 -5 211 92 211 100 0 3 -9 0 -19
-6 -32 -16 -36 -12 -8 10 14 11 30 20 35 20 5 0 16 8 23 18 13 15 12 16 -4 3
-15 -12 -17 -12 -12 0 3 8 22 23 43 34 33 18 171 118 494 358 101 76 130 104
76 77 -37 -19 -9 3 57 45 33 21 87 60 121 86 33 26 74 54 90 63 40 23 57 33
154 97 47 31 152 97 233 148 82 50 177 114 212 141 35 27 93 65 129 84 36 19
60 36 54 38 -7 3 27 25 73 50 100 54 215 133 228 155 10 19 -1 64 -24 99 -8
13 -15 33 -15 45 0 16 -5 20 -20 16 -24 -6 -25 2 -6 28 12 16 16 17 29 6 17
-13 37 -7 37 11 0 6 7 16 15 22 24 17 -4 49 -88 103 -82 53 -202 103 -512 215
-227 82 -385 145 -635 253 -147 63 -178 75 -194 74 -5 0 -12 4 -15 10 -4 6
-93 51 -199 100 -105 49 -240 116 -299 149 -138 78 -281 145 -463 216 -80 32
-176 70 -215 86 -38 16 -112 45 -164 65 -51 19 -109 49 -128 65 -18 17 -37 30
-41 30 -4 0 2 -7 12 -15 16 -12 17 -15 4 -15 -18 0 -41 24 -32 33 3 3 -18 18
-48 33 -171 85 -279 147 -268 154 7 4 0 12 -19 20 -34 13 -61 40 -42 40 6 0
11 4 11 9 0 5 -23 12 -52 16 -43 6 -54 5 -65 -11 -7 -10 -13 -20 -13 -23 0 -3
25 -17 56 -30 l55 -24 -26 -21 -27 -21 21 -26 c32 -41 156 -121 296 -192 72
-36 150 -78 174 -93 24 -15 41 -22 37 -16 -7 11 -169 109 -332 201 -50 28
-111 68 -135 90 -39 35 -42 40 -25 47 13 5 32 1 55 -12 137 -77 274 -156 318
-184 49 -31 133 -66 548 -235 99 -40 270 -116 380 -170 110 -53 242 -117 293
-141 51 -25 95 -51 98 -58 3 -8 13 -12 22 -9 9 2 26 -3 37 -11 19 -15 19 -15
-5 -10 l-25 5 26 -15 c14 -8 60 -29 103 -46 42 -16 100 -42 127 -56 56 -28
137 -58 385 -144 93 -32 258 -93 365 -136 107 -42 235 -91 286 -109 51 -19
102 -39 115 -46 40 -20 207 -134 208 -140 0 -4 -11 -10 -24 -13 -13 -3 -31
-17 -40 -31 -9 -14 -21 -23 -26 -20 -5 3 -22 -2 -37 -11 -24 -14 -25 -14 -9 0
25 20 8 21 -41 1 -21 -8 -73 -24 -117 -35 -43 -11 -92 -27 -109 -35 -35 -18
-40 -18 -32 -5 3 5 -7 5 -25 -1 -16 -6 -33 -15 -36 -20 -7 -12 3 -11 28 2 41
22 27 0 -17 -25 -25 -15 -45 -28 -45 -30 0 -7 98 33 132 54 47 29 70 25 33 -5
-16 -14 -25 -25 -19 -25 5 0 15 5 20 10 6 6 24 13 40 15 16 3 39 7 52 10 12 3
22 3 22 1 0 -4 -139 -93 -290 -185 -41 -26 -91 -58 -110 -73 -47 -35 -141 -90
-160 -93 -8 -1 -15 -8 -15 -16 0 -8 -48 -45 -107 -84 -320 -211 -379 -248
-384 -243 -3 3 11 16 30 28 49 30 45 37 -5 8 -43 -24 -75 -53 -45 -42 38 15
10 -8 -81 -64 -54 -33 -107 -68 -118 -77 -22 -19 -33 -25 152 86 130 79 213
122 174 91 -13 -11 -71 -48 -130 -82 -58 -35 -140 -87 -181 -115 -259 -177
-336 -228 -433 -286 -59 -35 -135 -90 -168 -121 -83 -80 -127 -101 -210 -99
-52 1 -77 -4 -120 -24 -30 -13 -47 -25 -39 -25 8 0 -21 -20 -65 -43 -44 -23
-110 -63 -146 -90 -70 -49 -91 -59 -68 -29 13 15 12 16 -3 4 -10 -8 -16 -17
-15 -20 1 -4 -2 -9 -7 -12 -6 -3 -26 -20 -45 -39 -20 -18 -49 -40 -65 -48 -17
-9 -68 -41 -115 -73 -139 -92 -242 -156 -304 -187 -31 -16 -55 -32 -51 -35 5
-6 -48 -48 -61 -48 -4 0 -1 8 6 18 13 15 12 16 -3 3 -10 -7 -15 -17 -13 -22 3
-4 -7 -16 -22 -25 -85 -53 -349 -234 -419 -287 -45 -34 -196 -136 -335 -227
-139 -91 -288 -194 -332 -228 -132 -107 -446 -321 -545 -371 -15 -7 -36 -22
-48 -32 -19 -18 -24 -18 -61 -5 -98 35 -220 133 -416 336 -94 97 -150 149
-158 144 -7 -4 -9 -3 -6 3 4 6 -15 28 -41 49 -26 21 -50 43 -54 48 -10 14 1
28 15 19 30 -17 -21 31 -67 64 -28 21 -127 99 -220 173 -175 140 -228 181
-211 163 24 -26 180 -155 219 -183 24 -16 62 -50 84 -75 22 -25 45 -45 52 -45
16 0 110 -69 110 -81 0 -11 -35 6 -45 21 -9 15 -65 52 -65 43 0 -5 49 -58 110
-118 60 -61 110 -113 110 -117 0 -18 -19 -4 -90 63 -145 138 -246 225 -308
268 -34 24 -62 47 -62 50 0 3 -26 26 -57 51 -100 77 -285 237 -322 278 -22 24
-49 42 -116 76 -16 9 -50 34 -75 56 -24 22 -49 40 -55 40 -5 0 -4 4 4 9 10 6
-15 30 -90 87 -57 43 -160 133 -229 199 -69 66 -156 147 -195 181 -205 177
-285 244 -335 279 -30 22 -75 56 -100 76 -25 20 -103 82 -175 139 -127 100
-251 211 -269 238 -4 8 -10 33 -12 55 l-4 42 34 -55 c19 -30 38 -60 43 -67 6
-9 40 4 126 46 65 33 120 59 123 60 2 0 32 15 67 32 59 31 176 81 447 193 111
45 269 136 278 158 2 5 23 21 46 37 37 26 42 33 39 63 l-4 33 158 65 c135 55
314 142 543 261 30 16 116 57 190 90 74 34 245 115 380 181 209 102 360 168
420 183 8 2 147 72 309 154 162 83 298 151 302 151 5 0 9 4 9 9 0 5 24 18 53
30 28 12 66 28 82 37 17 9 65 31 108 50 42 18 126 60 185 93 60 33 137 71 173
84 93 36 220 102 212 111 -4 4 0 4 8 1 17 -6 236 91 227 101 -4 3 -21 -2 -40
-10 -18 -9 -25 -11 -14 -4 10 7 38 28 63 47 25 19 77 49 115 68 39 19 68 36
65 40 -3 3 7 16 23 30 22 18 29 32 27 53 -1 17 -6 30 -11 30 -6 0 -5 5 2 12
19 19 14 33 -13 36 -26 2 -35 -20 -14 -33 7 -5 2 -16 -12 -31 -16 -17 -18 -24
-8 -24 12 0 11 -2 -1 -10 -21 -14 -32 -12 -25 3 4 6 -2 1 -13 -12 -12 -15 -24
-21 -32 -16 -8 5 -17 2 -24 -7 -6 -8 -33 -29 -60 -46 -49 -30 -50 -30 -67 -11
-11 13 -20 16 -24 9 -3 -5 -1 -10 4 -10 6 0 11 -4 11 -10 0 -13 -59 -42 -73
-36 -9 3 -9 5 1 5 14 1 16 37 2 46 -6 3 -13 -2 -16 -12 -3 -10 -10 -26 -15
-37 -8 -14 -7 -16 3 -11 10 7 11 5 0 -6 -10 -11 -17 -8 -42 17 l-30 30 136 54
c75 30 150 59 166 65 17 5 46 29 66 52 19 24 43 43 53 43 28 0 34 21 10 39
-16 12 -25 37 -36 101 -9 47 -20 96 -26 109 -7 18 -6 26 6 35 40 29 -18 69
-126 86 -66 11 -80 10 -107 -4 -18 -9 -39 -28 -48 -41 -32 -50 -36 -39 -59
165 -9 74 -20 187 -26 250 -30 342 -44 452 -94 730 -30 168 -61 341 -70 385
-8 44 -33 197 -55 340 -22 143 -47 298 -55 345 -9 47 -25 148 -36 225 -20 134
-27 193 -49 390 -17 145 -89 569 -115 671 -27 108 -77 217 -109 237 -23 15
-109 31 -118 22z m56 -81 c4 -11 -4 -19 -29 -30 -19 -7 -39 -14 -44 -14 -5 0
-65 -17 -133 -38 -67 -22 -186 -54 -263 -72 -77 -18 -219 -52 -315 -77 -568
-145 -1113 -276 -1340 -322 -142 -29 -393 -95 -820 -216 -322 -92 -407 -114
-885 -231 -403 -99 -538 -136 -565 -157 -13 -10 -13 -10 -2 4 10 13 9 19 -5
30 -11 9 -14 10 -9 2 4 -7 2 -13 -3 -13 -19 0 -12 30 12 53 17 18 56 30 182
55 372 75 551 118 752 183 236 77 720 206 988 264 44 10 123 29 175 42 52 14
178 42 280 63 230 48 330 72 445 106 50 15 117 28 151 29 112 5 180 19 639
130 165 40 353 85 418 100 134 31 152 45 25 20 -146 -29 -881 -201 -985 -231
-20 -5 -23 -3 -23 20 0 48 41 62 480 161 331 75 366 82 585 120 219 38 280 42
289 19z m70 -2 c23 -27 75 -172 86 -245 5 -34 18 -120 29 -192 11 -71 27 -175
35 -230 9 -55 27 -188 42 -295 14 -107 50 -348 79 -535 30 -187 59 -378 66
-425 6 -47 25 -161 41 -255 16 -93 35 -206 43 -250 7 -44 28 -152 45 -240 30
-152 37 -223 60 -585 6 -85 15 -221 22 -303 10 -138 10 -148 -7 -167 -10 -11
-22 -17 -26 -13 -13 13 -48 267 -84 598 -8 72 -26 210 -39 307 -14 98 -35 260
-46 360 -49 445 -267 1979 -285 2007 -2 5 -18 80 -34 168 -16 89 -39 184 -51
212 -13 28 -20 60 -17 71 3 11 1 18 -4 14 -5 -3 -9 0 -9 5 0 18 36 12 54 -7z
m-244 -182 c-14 -4 -34 -8 -45 -8 -16 0 -15 2 5 8 14 4 34 8 45 8 16 0 15 -2
-5 -8z m154 1 c3 -5 8 -31 10 -57 2 -27 6 -56 9 -64 5 -16 22 -138 33 -230 5
-52 38 -242 54 -320 17 -80 8 6 -15 145 -22 137 -43 296 -60 464 -5 48 -3 62
6 59 17 -6 25 -38 49 -198 11 -74 29 -198 40 -275 12 -77 48 -302 80 -500 84
-511 87 -530 110 -730 12 -99 23 -191 25 -205 2 -14 11 -81 19 -150 35 -298
47 -389 57 -450 6 -36 10 -69 8 -75 -2 -5 2 -30 8 -55 7 -25 17 -99 23 -165 7
-66 18 -154 26 -195 9 -41 17 -133 19 -205 3 -71 8 -162 13 -202 4 -39 5 -70
1 -67 -20 12 -42 120 -69 334 -36 286 -74 552 -101 720 -26 162 -82 562 -114
815 -14 110 -36 261 -50 335 -13 74 -36 212 -50 305 -63 404 -110 648 -135
706 l-10 24 4 -25 c11 -61 38 -250 61 -420 14 -102 36 -259 50 -350 13 -91 36
-250 50 -355 25 -179 60 -408 105 -680 11 -66 31 -192 45 -280 14 -88 31 -189
39 -225 33 -150 79 -445 101 -655 14 -132 20 -159 52 -226 36 -78 39 -124 10
-147 -11 -9 -476 -230 -563 -267 -22 -10 -127 -53 -234 -97 -288 -119 -413
-170 -530 -220 -58 -25 -157 -67 -220 -93 -120 -50 -184 -79 -415 -190 -77
-37 -219 -100 -315 -142 -96 -41 -254 -110 -350 -153 -260 -116 -451 -200
-456 -200 -2 0 -77 -34 -167 -76 -89 -42 -238 -105 -332 -140 -150 -57 -171
-63 -181 -49 -22 30 -97 345 -134 560 -4 28 -20 96 -34 152 -22 87 -66 339
-107 613 -15 102 -16 110 -18 76 0 -16 -3 -27 -6 -24 -6 5 -45 178 -51 228
-15 111 -27 170 -34 170 -4 0 -11 24 -15 53 -8 67 -43 253 -56 293 -5 17 -9
39 -9 50 0 40 -64 275 -70 258 -6 -16 -8 -15 -13 6 -3 14 -11 63 -17 111 -5
47 -17 112 -26 145 -8 32 -26 109 -39 169 -13 61 -38 157 -55 215 -17 58 -32
122 -33 142 -1 23 -5 32 -10 25 -5 -7 -6 -1 -3 15 4 15 0 41 -9 60 -15 32
-104 355 -140 508 -10 41 -33 133 -52 204 -39 144 -39 141 37 151 57 7 58 8
225 43 77 17 183 39 236 51 143 30 321 76 549 141 113 32 225 64 250 70 25 6
128 36 230 65 102 30 234 66 294 81 60 15 105 29 100 31 -9 3 -208 -36 -369
-72 -38 -9 -131 -25 -205 -36 -264 -38 -639 -125 -980 -226 -102 -30 -219 -63
-260 -74 -41 -10 -94 -26 -118 -34 -23 -8 -49 -12 -57 -9 -28 11 -16 -54 49
-266 36 -115 74 -255 86 -312 28 -132 63 -275 140 -571 34 -132 72 -298 85
-370 26 -143 102 -517 135 -662 53 -230 122 -548 160 -735 23 -113 52 -250 65
-305 13 -55 31 -138 40 -185 9 -47 21 -90 26 -96 4 -5 15 -50 24 -100 28 -156
32 -175 74 -381 45 -222 78 -328 101 -328 8 0 16 -9 18 -20 3 -16 1 -17 -7 -5
-6 8 -11 10 -11 4 0 -14 44 -44 79 -54 24 -6 22 -8 -26 -24 -59 -19 -54 -21
-140 48 -49 39 -66 59 -77 95 -31 97 -67 243 -101 414 -19 98 -52 242 -74 320
-60 219 -176 761 -256 1197 -48 257 -125 641 -161 795 -160 681 -186 785 -195
780 -4 -3 -5 3 -2 13 2 10 -9 60 -26 112 -62 197 -111 394 -111 448 0 67 19
182 32 199 16 20 146 58 493 144 325 81 566 141 733 185 51 13 161 40 245 59
83 20 195 50 247 66 52 17 138 39 190 50 52 10 187 40 300 65 113 25 255 57
315 70 61 13 137 31 170 39 33 8 92 19 130 25 147 22 296 53 460 95 255 66
538 132 645 150 52 8 149 26 215 39 134 26 181 30 189 17z m-237 -17 c-3 -3
-12 -4 -19 -1 -8 3 -5 6 6 6 11 1 17 -2 13 -5z m-1176 -85 c6 -13 7 -19 1 -15
-6 3 -127 -23 -269 -58 -142 -35 -278 -66 -303 -69 -25 -3 -36 -4 -25 -1 11 3
61 19 110 36 75 26 444 126 467 128 4 0 12 -10 19 -21z m-2974 -921 c-3 -8 -6
-5 -6 6 -1 11 2 17 5 13 3 -3 4 -12 1 -19z m-120 -200 c-3 -8 -6 -5 -6 6 -1
11 2 17 5 13 3 -3 4 -12 1 -19z m300 -780 c-3 -8 -6 -5 -6 6 -1 11 2 17 5 13
3 -3 4 -12 1 -19z m5 -27 c7 10 8 7 4 -13 -4 -16 -3 -28 2 -28 11 0 54 -160
86 -320 14 -69 39 -188 57 -265 17 -77 34 -150 37 -162 3 -16 0 -23 -11 -23
-25 0 -34 20 -66 140 -17 63 -42 157 -56 209 -20 74 -23 96 -13 103 10 5 8 8
-4 8 -10 0 -17 3 -16 8 0 4 -2 14 -5 22 -15 33 -56 194 -51 201 2 4 0 10 -6
14 -13 8 -13 95 1 95 5 0 7 6 3 13 -5 7 -1 7 10 -2 15 -13 19 -13 28 0z m-33
-340 c25 -104 61 -279 61 -300 0 -2 -2 -2 -5 1 -4 3 -95 412 -95 425 0 2 2 3
4 3 2 0 18 -58 35 -129z m448 -483 c-3 -7 -5 -2 -5 12 0 14 2 19 5 13 2 -7 2
-19 0 -25z m-212 -63 c9 -27 18 -87 21 -133 3 -72 2 -83 -10 -73 -7 6 -17 37
-21 69 -4 31 -13 86 -20 122 -21 98 -1 108 30 15z m233 -15 c0 -9 -3 -7 -8 5
-5 11 -8 29 -8 40 0 16 2 15 8 -5 4 -14 8 -32 8 -40z m4722 -579 c0 -5 -11 -8
-25 -7 -38 4 -43 16 -7 16 18 0 32 -4 32 -9z m-100 -33 c25 -2 48 -7 51 -11 3
-5 14 -1 23 8 35 35 50 16 68 -85 20 -111 22 -160 7 -160 -5 0 -8 4 -5 9 8 12
-4 41 -16 41 -6 0 -22 12 -35 26 -30 33 -37 26 -24 -23 22 -80 23 -79 -116
-145 -198 -93 -379 -176 -478 -218 -148 -62 -185 -80 -150 -74 25 5 20 0 -25
-27 -84 -50 -547 -262 -915 -419 -55 -23 -134 -58 -175 -77 -209 -98 -339
-157 -375 -168 -57 -19 -332 -142 -380 -169 -22 -13 -106 -54 -187 -91 -80
-37 -149 -73 -152 -82 -3 -8 -12 -13 -19 -10 -6 3 -63 -22 -126 -55 -63 -32
-141 -68 -172 -78 -68 -23 -331 -147 -339 -159 -3 -5 -34 -22 -70 -39 -36 -16
-103 -48 -150 -70 -113 -54 -291 -132 -300 -132 -4 0 -13 28 -20 63 -13 69
-47 175 -62 194 -7 8 0 14 24 21 18 5 83 28 143 52 61 23 146 56 190 73 44 17
184 82 310 145 127 63 266 129 310 147 44 18 172 74 285 125 113 51 234 105
270 120 150 63 510 225 595 267 28 14 145 65 260 113 116 48 307 136 426 194
119 58 219 106 222 106 4 0 46 17 94 39 49 21 144 62 213 91 69 28 145 61 170
72 303 137 578 248 624 253 21 2 40 6 43 9 2 2 -8 23 -23 45 -26 41 -27 42 -8
57 16 13 16 15 2 10 -29 -9 -138 -19 -138 -13 0 11 55 36 70 32 8 -2 35 -5 60
-7z m-33 -87 c11 -17 7 -21 -33 -40 -25 -12 -73 -32 -107 -45 -83 -31 -277
-116 -302 -132 -11 -7 -128 -56 -260 -109 -300 -121 -418 -173 -619 -270 -87
-42 -190 -89 -230 -105 -71 -28 -216 -93 -571 -255 -104 -48 -293 -131 -420
-185 -229 -97 -295 -127 -495 -222 -58 -27 -130 -60 -160 -73 -31 -13 -155
-73 -275 -133 -121 -61 -231 -113 -245 -117 -14 -4 -40 -16 -59 -26 -39 -21
-54 -17 -25 7 10 8 12 12 4 8 -8 -4 -24 -15 -35 -24 -37 -31 -83 -43 -145 -37
-32 3 -64 8 -69 12 -19 11 -1 25 34 25 39 0 181 52 313 116 51 24 95 44 97 44
2 0 65 29 140 65 74 36 137 65 140 65 3 0 94 43 203 96 108 53 273 129 365
170 92 41 189 85 215 99 26 13 117 53 203 89 86 36 181 76 210 90 146 66 292
125 299 121 5 -3 23 3 42 14 18 10 94 45 168 76 74 31 171 72 215 92 147 65
418 180 595 253 96 40 195 81 220 92 150 68 255 115 328 150 63 29 92 38 115
34 24 -5 27 -4 12 3 -17 8 -11 13 45 40 78 36 72 35 87 12z m-179 -18 c-3 -21
-53 -52 -83 -53 -12 0 -25 -4 -30 -9 -6 -5 -57 -28 -115 -52 -58 -24 -120 -54
-139 -66 -19 -13 -38 -23 -43 -23 -5 0 -37 -13 -71 -29 -122 -56 -173 -78
-272 -116 -55 -21 -145 -57 -200 -81 -55 -23 -174 -73 -265 -109 -91 -37 -199
-83 -240 -103 -86 -40 -283 -123 -450 -189 -63 -25 -128 -51 -145 -58 -155
-70 -236 -105 -240 -105 -3 0 -60 -24 -128 -54 -67 -30 -135 -57 -150 -61 -17
-3 -25 -10 -21 -17 4 -6 3 -8 -4 -4 -6 3 -37 -8 -69 -26 -69 -38 -511 -245
-713 -334 -80 -35 -185 -85 -235 -111 -78 -40 -201 -82 -243 -83 -8 0 -12 9
-10 22 2 17 24 31 98 63 52 23 172 77 265 119 94 43 186 85 205 94 19 8 38 17
43 19 4 2 7 0 7 -5 0 -5 -22 -19 -50 -32 -27 -13 -49 -25 -47 -26 2 -2 39 12
83 32 43 20 66 33 51 29 -45 -9 -23 11 36 34 28 11 99 41 157 66 151 67 170
74 170 70 0 -3 -21 -16 -47 -29 -27 -14 -45 -25 -41 -26 8 0 178 80 178 85 0
2 -10 1 -22 -1 -13 -2 -6 2 16 11 21 8 43 12 49 8 5 -3 7 -2 4 4 -4 6 35 29
86 53 51 24 148 70 217 103 165 79 233 110 365 164 61 24 157 66 215 93 175
81 449 200 529 230 146 55 437 178 586 247 83 39 168 78 189 87 70 29 50 8
-30 -32 -130 -65 -145 -74 -141 -78 2 -2 24 4 48 15 70 30 84 34 92 33 9 -3
229 97 242 109 17 16 -1 9 -120 -46 -64 -31 -120 -54 -122 -51 -3 2 19 17 49
31 29 15 60 33 68 40 32 27 255 122 262 112 4 -6 4 -15 2 -19 -9 -15 9 -8 57
22 26 16 63 33 81 39 18 5 34 10 36 10 2 1 2 -7 0 -16z m332 -218 c0 -5 -108
-61 -148 -76 -49 -18 -9 10 64 46 70 34 84 39 84 30z m375 -113 c-3 -3 -11 0
-18 7 -9 10 -8 11 6 5 10 -3 15 -9 12 -12z m-420 -42 c-3 -5 -12 -10 -18 -10
-7 0 -6 4 3 10 19 12 23 12 15 0z m-275 -46 c22 -15 40 -28 40 -31 0 -2 -6
-18 -14 -36 -10 -25 -29 -40 -87 -69 -41 -20 -85 -39 -99 -43 -14 -4 -34 -14
-45 -21 -29 -21 -44 -17 -55 12 -6 15 -20 40 -31 56 -12 16 -20 30 -18 31 2 2
56 27 119 57 63 29 119 57 125 62 14 12 22 10 65 -18z m167 -29 c-15 -14 -33
-25 -39 -25 -6 0 4 11 23 24 44 32 51 32 16 1z m823 -31 c0 -2 -9 0 -20 6 -11
6 -20 13 -20 16 0 2 9 0 20 -6 11 -6 20 -13 20 -16z m-850 -38 c0 -5 -108 -56
-118 -56 -8 1 100 59 111 60 4 0 7 -2 7 -4z m-442 -81 c2 -1 0 -14 -3 -28 -5
-16 -16 -28 -33 -32 -15 -3 -101 -41 -192 -84 -91 -43 -265 -120 -387 -172
-142 -60 -217 -97 -210 -102 8 -6 6 -7 -5 -3 -22 7 -50 -3 -43 -14 3 -5 -16
-19 -42 -32 -27 -12 -69 -35 -95 -50 -27 -15 -48 -23 -48 -17 0 6 -7 9 -14 6
-10 -4 -13 -1 -9 9 3 9 0 12 -9 9 -7 -3 -14 -15 -15 -25 -1 -13 2 -18 9 -14 7
4 8 2 4 -4 -13 -21 -341 -179 -451 -217 -60 -21 -116 -42 -122 -48 -21 -16
-15 -30 10 -24 21 6 21 6 3 -8 -11 -8 -22 -15 -25 -15 -3 0 -22 22 -41 48 -44
59 -49 64 -83 87 l-29 19 69 24 c154 56 405 158 688 282 165 73 317 138 337
146 69 25 469 208 583 266 l70 36 40 -20 c22 -11 41 -22 43 -23z m262 -5 c-8
-5 -19 -10 -25 -10 -5 0 -3 5 5 10 8 5 20 10 25 10 6 0 3 -5 -5 -10z m-540
-226 c-52 -25 -124 -57 -159 -70 -35 -13 -116 -52 -180 -87 -135 -72 -136 -73
-128 -60 4 6 21 18 39 27 18 9 60 32 93 51 33 19 94 48 135 64 41 16 120 50
175 75 130 58 148 58 25 0z m-3693 -236 c-3 -7 -5 -2 -5 12 0 14 2 19 5 13 2
-7 2 -19 0 -25z m37 -152 c15 -70 25 -130 23 -132 -4 -4 -9 16 -42 169 -15 66
-19 105 -11 96 2 -2 16 -62 30 -133z m-110 4 c14 -44 25 -84 25 -88 -1 -4 -1
-9 0 -12 1 -3 3 -27 5 -55 2 -27 7 -57 10 -66 5 -12 1 -18 -15 -22 -13 -4 -25
-4 -27 -2 -2 2 -12 54 -23 117 -16 96 -23 116 -45 136 -14 12 -32 22 -40 22
-25 0 -15 15 24 32 20 9 42 17 49 17 7 1 24 -35 37 -79z m6826 40 c8 -5 11
-10 5 -10 -5 0 -17 5 -25 10 -8 5 -10 10 -5 10 6 0 17 -5 25 -10z m-4611 -194
c29 -15 81 -77 81 -95 0 -13 -46 -37 -163 -85 -48 -20 -136 -61 -196 -91 -60
-30 -113 -55 -119 -55 -5 0 -31 -9 -57 -21 l-47 -21 -51 43 c-29 23 -46 36
-39 29 6 -8 12 -21 12 -29 0 -8 7 -22 15 -31 13 -15 9 -20 -45 -55 -33 -21
-60 -40 -60 -42 0 -5 36 14 83 44 22 14 40 23 42 21 12 -14 25 -50 21 -57 -6
-8 -150 -72 -193 -86 -21 -6 -23 -3 -23 28 0 50 -19 98 -51 132 l-29 31 107
34 c59 19 115 42 125 52 18 18 120 67 257 125 46 19 101 46 122 59 23 14 45
21 55 17 13 -5 16 -3 11 10 -6 17 7 22 41 18 7 -1 11 4 10 11 -2 7 4 12 14 10
9 -1 19 2 23 8 8 14 21 13 54 -4z m271 -46 c0 -5 -3 -10 -7 -10 -5 0 -19 -3
-33 -6 -24 -5 -24 -5 -6 10 22 18 46 21 46 6z m-2333 -32 c-3 -7 -5 -2 -5 12
0 14 2 19 5 13 2 -7 2 -19 0 -25z m-112 -37 c-3 -5 -1 -13 5 -16 6 -4 8 -15 5
-26 -11 -34 -16 -74 -9 -66 4 4 14 -2 21 -13 8 -11 19 -17 25 -14 7 5 8 2 4
-5 -5 -7 -14 -10 -22 -7 -8 3 -14 -1 -14 -10 0 -8 4 -12 10 -9 6 3 7 -1 4 -9
-3 -9 -10 -16 -14 -16 -8 0 -32 82 -28 97 0 5 -4 21 -10 36 -14 32 -15 51 -5
60 10 11 35 8 28 -2z m101 -34 c8 3 15 0 15 -6 1 -6 2 -14 3 -18 1 -5 6 -32
10 -60 4 -29 12 -53 17 -53 4 0 13 -10 20 -21 9 -18 7 -25 -19 -48 -16 -15
-33 -38 -37 -51 -5 -17 -9 -19 -16 -9 -5 9 -1 21 12 35 22 23 22 50 2 72 -15
16 -17 36 -3 27 6 -4 10 14 10 46 l0 51 -30 -4 c-16 -3 -30 -3 -30 -2 0 13 25
54 28 46 2 -6 10 -8 18 -5z m2144 -21 c0 -2 -7 -7 -16 -10 -8 -3 -12 -2 -9 4
6 10 25 14 25 6z m-70 -31 c-14 -8 -29 -14 -35 -14 -5 0 1 6 15 14 14 8 30 14
35 14 6 0 -1 -6 -15 -14z m-2180 -229 c29 -84 29 -89 13 -102 -17 -12 -19 -6
-35 64 -44 201 -63 341 -27 202 11 -41 33 -115 49 -164z m37 62 c-3 -8 -6 -5
-6 6 -1 11 2 17 5 13 3 -3 4 -12 1 -19z m1295 -32 c32 -14 58 -50 58 -81 0 -9
-51 -40 -126 -77 l-126 -62 -31 36 c-18 20 -42 41 -54 48 -13 6 -23 14 -23 19
0 5 30 23 68 40 37 18 94 45 127 61 72 34 65 33 107 16z m388 -1 c0 -8 -2 -15
-4 -15 -2 0 -6 7 -10 15 -3 8 -1 15 4 15 6 0 10 -7 10 -15z m-1621 -52 c7 -24
6 -31 -5 -29 -27 4 -38 24 -24 41 7 8 10 18 6 22 -3 3 -6 1 -6 -5 0 -7 -5 -12
-11 -12 -8 0 -7 5 1 15 16 19 27 9 39 -32z m208 -25 c32 -35 43 -62 49 -120 3
-29 10 -71 14 -93 13 -57 12 -68 -5 -62 -8 4 -18 1 -22 -5 -4 -7 -15 14 -25
47 -16 56 -17 57 -11 15 11 -77 10 -83 -16 -85 -16 -1 -25 4 -30 19 -4 17 -7
14 -11 -14 -5 -32 -9 -26 -49 85 -54 151 -56 175 -17 186 16 5 32 12 35 17 8
12 43 31 57 32 6 0 20 -10 31 -22z m683 -84 c0 -17 -473 -214 -486 -202 -3 3
156 79 346 165 85 39 140 53 140 37z m7100 -19 c0 -2 -10 -9 -22 -15 -22 -11
-22 -10 -4 4 21 17 26 19 26 11z m-7030 -30 c68 -43 91 -119 47 -148 -13 -9
-53 -28 -88 -42 -83 -35 -157 -70 -366 -171 -95 -46 -175 -84 -177 -84 -3 0
-54 -23 -113 -51 -59 -28 -136 -64 -171 -80 -35 -16 -61 -33 -58 -38 9 -13
-25 -23 -39 -11 -7 6 -15 28 -19 50 -3 22 -12 40 -19 40 -16 0 -36 63 -29 95
3 18 16 28 51 41 78 29 181 74 281 124 52 26 203 94 335 150 132 57 258 114
280 126 22 13 41 23 43 24 1 0 20 -11 42 -25z m7153 -31 l22 -46 -30 -25 c-64
-53 -372 -249 -342 -217 4 4 63 44 132 89 69 45 122 85 118 90 -5 4 -3 6 2 3
6 -4 23 4 39 17 29 23 29 25 20 79 -13 72 6 77 39 10z m-178 -39 c-107 -64
-181 -105 -192 -105 -17 0 254 159 272 160 6 0 -30 -25 -80 -55z m-8058 23
c-3 -8 -6 -5 -6 6 -1 11 2 17 5 13 3 -3 4 -12 1 -19z m67 -43 c4 -19 3 -25 -3
-15 -4 8 -11 29 -15 45 -4 19 -3 25 3 15 4 -8 11 -28 15 -45z m8 -166 c23 -9
37 -10 62 -1 40 15 128 16 142 2 6 -6 18 -8 28 -4 13 5 14 9 5 20 -9 11 -8 14
4 14 8 0 21 2 29 3 7 2 10 2 5 0 -4 -3 -5 -8 -2 -13 6 -9 -114 -69 -215 -107
-43 -16 -66 -21 -68 -13 -2 6 -28 43 -58 82 -31 41 -54 82 -54 96 0 22 3 21
46 -21 25 -25 59 -51 76 -58z m428 91 c-8 -5 -19 -10 -25 -10 -5 0 -3 5 5 10
8 5 20 10 25 10 6 0 3 -5 -5 -10z m-420 -51 c15 -28 5 -23 -15 7 -9 15 -12 23
-6 20 6 -4 16 -16 21 -27z m-153 -11 c-3 -7 -5 -2 -5 12 0 14 2 19 5 13 2 -7
2 -19 0 -25z m7903 18 c0 -2 -9 -6 -20 -9 -11 -3 -18 -1 -14 4 5 9 34 13 34 5z
m-8168 -46 c-9 -16 -19 -25 -21 -19 -3 9 26 49 35 49 2 0 -5 -13 -14 -30z
m333 -48 c-2 -2 -13 -1 -24 3 -15 4 -21 15 -21 33 l1 27 24 -30 c13 -16 22
-31 20 -33z m870 -22 c-3 -5 -12 -10 -18 -10 -7 0 -6 4 3 10 19 12 23 12 15 0z
m-862 -93 c3 -12 16 -49 30 -82 13 -33 28 -73 32 -90 10 -45 -10 -19 -29 37
-9 26 -29 78 -46 114 -16 37 -30 69 -30 72 0 14 39 -32 43 -51z m7567 38 c-7
-8 -18 -15 -24 -15 -6 0 -2 7 8 15 25 19 32 19 16 0z m-7905 -22 c-3 -16 -11
-32 -16 -37 -5 -6 -4 5 1 25 6 18 10 35 10 36 0 2 3 3 6 3 3 0 3 -12 -1 -27z
m8078 -21 c-4 -16 -105 -84 -238 -160 l-40 -23 30 26 c17 16 23 25 13 21 -28
-9 -21 0 17 24 19 12 39 19 45 15 6 -3 22 3 36 14 15 12 22 21 17 21 -6 0 -16
-7 -23 -15 -7 -8 -18 -15 -24 -15 -11 1 15 24 48 42 13 7 16 7 12 -1 -10 -16
7 -13 30 5 16 13 16 15 2 10 -28 -9 -21 2 13 20 17 8 28 11 25 5 -4 -6 -3 -11
3 -11 6 0 15 9 21 20 13 25 20 26 13 2z m-7853 -57 c-7 -9 -15 -13 -18 -10 -3
2 1 11 8 20 7 9 15 13 18 10 3 -2 -1 -11 -8 -20z m7660 -10 c0 -2 -10 -9 -22
-15 -22 -11 -22 -10 -4 4 21 17 26 19 26 11z m-55 -34 c-20 -17 -193 -131
-200 -131 -16 0 20 32 72 62 30 18 71 43 91 55 39 24 53 29 37 14z m-7378
-151 c14 0 14 -2 -3 -15 -23 -17 -44 -19 -44 -4 0 6 7 9 15 5 8 -3 15 -3 15 0
0 3 -7 12 -15 20 -8 9 -15 23 -15 32 1 11 6 8 16 -10 8 -16 22 -28 31 -28z
m7203 -14 c-14 -13 -39 -33 -56 -43 -17 -10 -100 -64 -184 -121 -83 -56 -173
-114 -198 -127 -26 -14 -58 -33 -72 -42 -39 -26 -12 -2 61 55 36 28 101 72
145 97 43 26 94 58 112 72 17 13 32 21 32 17 0 -3 8 3 18 15 18 23 140 101
157 101 5 0 -2 -11 -15 -24z m-160 -41 c0 -14 -32 -35 -87 -56 -34 -13 -27 -6
34 37 57 39 53 38 53 19z m40 11 c0 -2 -7 -7 -16 -10 -8 -3 -12 -2 -9 4 6 10
25 14 25 6z m-168 -23 c-11 -10 -35 -26 -53 -36 -17 -10 -29 -20 -26 -23 3 -4
22 4 42 16 20 12 39 20 42 16 3 -3 -3 -9 -13 -13 -10 -4 -70 -43 -133 -87 -63
-45 -141 -100 -175 -124 -101 -72 -215 -145 -321 -207 -55 -32 -131 -82 -168
-109 -38 -28 -73 -50 -79 -48 -5 1 -31 -13 -56 -31 -26 -19 -58 -40 -72 -46
l-25 -12 24 18 c14 10 41 31 62 48 176 140 218 170 284 200 42 19 100 51 130
70 31 19 59 35 63 35 4 0 28 17 53 38 73 60 314 222 330 222 5 0 6 6 4 13 -2
6 17 27 43 44 50 35 79 45 44 16z m-7174 -208 c-3 -3 -9 2 -12 12 -6 14 -5 15
5 6 7 -7 10 -15 7 -18z m332 -70 c5 -16 12 -47 15 -69 2 -21 7 -46 10 -56 3
-10 -3 -28 -14 -41 -11 -13 -20 -18 -21 -11 0 6 5 12 11 12 19 0 2 86 -31 155
-16 35 -30 66 -30 69 0 18 51 -33 60 -59z m-55 -1 c8 -20 15 -39 15 -43 -1 -8
-39 61 -40 72 -1 18 11 4 25 -29z m6645 -17 c0 -2 -19 -18 -42 -36 l-43 -32
39 35 c37 34 46 40 46 33z m100 -1 c0 -2 -25 -20 -55 -40 -30 -20 -55 -34 -55
-31 0 4 101 75 107 75 2 0 3 -2 3 -4z m-265 -96 c-3 -5 -11 -10 -16 -10 -6 0
-7 5 -4 10 3 6 11 10 16 10 6 0 7 -4 4 -10z m135 5 c0 -2 -10 -9 -22 -15 -22
-11 -22 -10 -4 4 21 17 26 19 26 11z m-176 -23 c7 -13 -117 -91 -128 -81 -13
12 3 27 62 61 52 30 59 32 66 20z m-6436 -72 c-13 -20 -28 -27 -28 -12 0 10
22 32 32 32 5 0 3 -9 -4 -20z m6402 -5 c-7 -8 -17 -15 -23 -15 -6 0 -2 7 9 15
25 19 30 19 14 0z m-6400 -31 c0 -8 -19 -13 -24 -6 -3 5 1 9 9 9 8 0 15 -2 15
-3z m50 -37 c13 -5 13 -6 -1 -6 -8 -1 -24 6 -35 15 -19 15 -19 15 1 6 11 -5
27 -12 35 -15z m337 -14 c-3 -10 -5 -4 -5 12 0 17 2 24 5 18 2 -7 2 -21 0 -30z
m60 -25 c-2 -13 -4 -3 -4 22 0 25 2 35 4 23 2 -13 2 -33 0 -45z m5739 22 c8 0
12 -4 9 -10 -7 -11 -114 -44 -121 -37 -3 2 17 20 43 39 33 24 49 31 51 21 2
-7 10 -13 18 -13z m-5789 -67 c-3 -10 -5 -2 -5 17 0 19 2 27 5 18 2 -10 2 -26
0 -35z m5868 37 c-3 -5 -16 -15 -28 -21 -19 -9 -19 -8 3 10 28 23 34 26 25 11z
m-5758 -32 c-3 -7 -5 -2 -5 12 0 14 2 19 5 13 2 -7 2 -19 0 -25z m5681 -21
c-37 -30 -93 -63 -84 -49 7 11 96 72 105 72 3 -1 -6 -11 -21 -23z m-228 -42
c0 -2 -10 -9 -22 -15 -22 -11 -22 -10 -4 4 21 17 26 19 26 11z m-5474 -32
c-10 -10 -19 5 -10 18 6 11 8 11 12 0 2 -7 1 -15 -2 -18z m300 -23 c29 -27 50
-50 46 -50 -10 1 -117 100 -107 100 4 0 32 -22 61 -50z m-259 -2 c-3 -8 -6 -5
-6 6 -1 11 2 17 5 13 3 -3 4 -12 1 -19z m5577 -26 c-78 -54 -153 -100 -141
-87 13 15 192 135 201 135 5 0 -22 -21 -60 -48z m-564 -46 c0 -15 -156 -113
-166 -103 -6 6 112 92 136 98 14 4 26 7 28 8 1 0 2 -1 2 -3z m-4803 -28 c-3
-8 -6 -5 -6 6 -1 11 2 17 5 13 3 -3 4 -12 1 -19z m60 -25 c-3 -10 -5 -2 -5 17
0 19 2 27 5 18 2 -10 2 -26 0 -35z m4858 27 c-3 -5 -11 -10 -16 -10 -6 0 -7 5
-4 10 3 6 11 10 16 10 6 0 7 -4 4 -10z m95 -20 c-19 -13 -30 -13 -30 0 0 6 10
10 23 10 18 0 19 -2 7 -10z m-150 -14 c-8 -8 -34 -27 -57 -43 -22 -15 -65 -47
-95 -69 -29 -23 -90 -61 -135 -84 -46 -23 -85 -46 -89 -51 -3 -5 -11 -9 -17
-9 -7 0 6 16 28 35 22 19 45 35 52 35 6 0 13 5 15 11 5 14 278 187 298 188 13
1 13 -1 0 -13z m78 -14 c2 -6 -8 -17 -22 -23 -14 -7 -26 -17 -26 -22 0 -5 -7
-3 -16 4 -14 12 -13 16 12 36 30 24 45 25 52 5z m102 8 c-8 -5 -22 -9 -30 -9
-10 0 -8 3 5 9 27 12 43 12 25 0z m-4983 -52 c-3 -7 -5 -2 -5 12 0 14 2 19 5
13 2 -7 2 -19 0 -25z m4768 -18 c-3 -5 -1 -10 5 -10 6 0 8 -5 4 -11 -5 -8 -9
-8 -14 1 -6 9 -13 9 -29 1 -28 -15 -27 -24 2 -16 21 6 21 6 3 -9 -23 -18 -42
-20 -51 -6 -4 6 1 7 11 3 12 -4 15 -3 10 5 -4 7 6 20 26 32 38 23 42 24 33 10z
m95 2 c0 -5 -12 -14 -27 -21 -28 -13 -28 -13 -9 8 20 22 36 27 36 13z m-60
-40 c0 -5 -12 -14 -27 -21 l-28 -11 24 20 c26 22 31 24 31 12z m-4580 -47 c19
-19 30 -35 24 -35 -5 0 -22 16 -37 35 -36 45 -30 45 13 0z m4426 -30 c-27 -19
-52 -32 -55 -29 -3 3 1 9 9 14 8 5 29 18 45 29 52 34 52 23 1 -14z m-4438 -10
c-3 -3 -9 2 -12 12 -6 14 -5 15 5 6 7 -7 10 -15 7 -18z m4202 21 c0 -2 -7 -7
-16 -10 -8 -3 -12 -2 -9 4 6 10 25 14 25 6z m-45 -26 c-3 -5 -16 -15 -28 -21
-19 -9 -19 -8 3 10 28 23 34 26 25 11z m273 -20 c-7 -11 -18 -20 -25 -20 -6 0
-13 -3 -15 -8 -5 -12 -113 -81 -118 -75 -3 3 1 8 8 10 6 3 12 9 12 14 0 6 -4
7 -10 4 -25 -15 -6 5 28 31 20 15 31 20 23 11 -20 -25 -7 -21 51 17 63 42 61
41 46 16z m-4317 -27 c13 -16 12 -17 -3 -4 -10 7 -18 15 -18 17 0 8 8 3 21
-13z m3928 -7 c-15 -12 -63 -45 -108 -71 -47 -28 -77 -51 -71 -55 8 -5 6 -9
-5 -13 -9 -4 -13 -3 -10 3 8 13 -5 13 -25 0 -13 -9 -13 -10 0 -10 8 0 -16 -20
-55 -45 -40 -25 -77 -42 -87 -39 -9 3 -20 -1 -24 -7 -4 -8 -3 -9 4 -5 7 4 12
3 12 -1 0 -9 -18 -21 -89 -61 -25 -14 -69 -43 -98 -64 -29 -21 -55 -38 -59
-38 -3 0 -28 -16 -55 -36 -27 -20 -49 -33 -49 -30 0 7 306 235 362 270 99 61
373 225 378 225 3 0 -7 -10 -21 -23z m121 -16 c0 -5 -14 -17 -31 -26 -25 -13
-29 -18 -18 -26 12 -8 12 -9 -1 -5 -8 2 -21 -2 -28 -10 -8 -7 -18 -10 -24 -7
-7 4 -8 2 -4 -4 8 -13 -23 -31 -41 -25 -6 2 -19 -7 -28 -21 -10 -14 -22 -23
-28 -19 -5 3 -7 1 -4 -4 6 -10 -23 -31 -170 -122 -29 -18 -51 -37 -48 -41 2
-4 -7 -7 -21 -7 -13 0 -32 -7 -42 -16 -42 -36 -325 -206 -334 -200 -6 3 -8 1
-5 -4 4 -6 -30 -35 -76 -64 -45 -30 -131 -88 -192 -130 -179 -124 -542 -339
-571 -339 -2 0 -4 6 -4 13 0 15 131 101 299 196 130 74 136 77 126 61 -3 -5
-2 -10 4 -10 10 0 26 19 26 32 0 4 61 47 135 97 74 49 161 108 193 130 32 22
61 40 65 39 13 -4 53 23 47 31 -7 12 43 43 56 36 5 -4 8 -2 7 3 -4 11 96 82
207 148 44 26 106 63 137 83 150 95 184 115 194 117 6 1 29 14 52 28 23 14 44
26 46 26 3 0 16 11 30 25 26 26 46 32 46 15z m-4054 -42 l29 -33 -32 29 c-31
28 -38 36 -30 36 2 0 16 -15 33 -32z m4149 -18 c3 -5 0 -8 -7 -5 -7 3 -28 -8
-46 -24 -17 -17 -32 -27 -32 -23 0 8 62 61 72 62 4 0 10 -4 13 -10z m-3980
-20 c10 -11 16 -20 13 -20 -3 0 -13 9 -23 20 -10 11 -16 20 -13 20 3 0 13 -9
23 -20z m-28 -37 c40 -40 68 -73 61 -73 -2 0 -28 25 -58 55 -30 30 -51 55 -48
55 4 0 24 -17 45 -37z m53 -124 c30 -29 42 -42 25 -29 -49 40 -175 164 -175
173 0 5 21 -14 48 -41 26 -27 72 -73 102 -103z m3710 121 c0 -5 -5 -10 -11
-10 -5 0 -7 5 -4 10 3 6 8 10 11 10 2 0 4 -4 4 -10z m140 -22 c0 -18 -2 -20
-9 -8 -6 8 -7 18 -5 22 9 14 14 9 14 -14z m-3595 -148 c10 -11 16 -20 13 -20
-3 0 -13 9 -23 20 -10 11 -16 20 -13 20 3 0 13 -9 23 -20z m240 -194 c77 -62
161 -127 187 -144 52 -35 78 -65 32 -36 -69 43 -378 289 -414 330 -22 24 -20
24 15 -5 22 -18 103 -83 180 -145z m3084 150 c-14 -13 -249 -165 -269 -175
-20 -10 -19 -6 10 21 19 18 34 37 32 43 -2 5 -1 7 3 4 3 -4 18 4 32 17 14 13
29 21 33 19 14 -8 130 56 142 79 8 14 13 17 16 8 2 -7 2 -15 1 -16z m-364
-171 c-81 -71 -420 -305 -442 -305 -7 0 -13 -5 -13 -11 0 -5 -4 -8 -9 -4 -5 3
-16 -2 -24 -10 -9 -8 -20 -15 -25 -15 -5 0 -15 -7 -22 -15 -7 -8 -16 -13 -20
-10 -4 3 -14 -3 -21 -12 -10 -12 -10 -14 -1 -9 6 4 12 5 12 2 0 -6 -149 -110
-187 -130 -18 -9 -33 -12 -33 -6 0 5 -8 10 -17 10 -16 1 -15 2 2 12 11 6 22
14 25 17 3 4 37 25 75 48 80 47 121 78 93 69 -25 -7 -22 1 3 15 15 8 19 8 15
0 -8 -13 -4 -14 18 -5 9 3 16 10 16 16 0 5 -5 6 -12 2 -6 -4 -8 -3 -4 4 9 14
117 76 136 77 8 1 36 17 61 36 107 79 177 128 224 157 59 36 178 101 185 101
3 1 -13 -15 -35 -34z m-2744 -72 c13 -16 12 -17 -3 -4 -17 13 -22 21 -14 21 2
0 10 -8 17 -17z m2639 -73 c-35 -24 -54 -31 -30 -11 14 11 30 21 35 21 6 0 3
-5 -5 -10z m-2599 -27 c13 -16 12 -17 -3 -4 -10 7 -18 15 -18 17 0 8 8 3 21
-13z m156 -5 c-3 -8 -6 -5 -6 6 -1 11 2 17 5 13 3 -3 4 -12 1 -19z m2024 -22
c-6 -8 -22 -16 -34 -19 -22 -6 -22 -6 2 14 27 22 49 26 32 5z m-2126 -16 c10
-11 16 -20 13 -20 -3 0 -13 9 -23 20 -10 11 -16 20 -13 20 3 0 13 -9 23 -20z
m96 -77 c13 -16 12 -17 -3 -4 -17 13 -22 21 -14 21 2 0 10 -8 17 -17z m217
-79 c13 -20 19 -33 13 -30 -16 10 -53 66 -44 66 4 0 18 -16 31 -36z m1582 21
c-7 -9 -15 -13 -19 -10 -3 3 1 10 9 15 21 14 24 12 10 -5z m120 -30 c0 -2 -10
-9 -22 -15 -22 -11 -22 -10 -4 4 21 17 26 19 26 11z m-1672 -65 c7 -11 9 -20
4 -20 -10 0 -32 22 -32 32 0 15 15 8 28 -12z m42 -2 c0 -13 -23 -5 -28 10 -2
7 2 10 12 6 9 -3 16 -11 16 -16z m1650 -18 c-14 -11 -29 -20 -35 -20 -5 0 4 9
20 20 38 25 48 25 15 0z m-1450 -10 c0 -5 -2 -10 -4 -10 -3 0 -8 5 -11 10 -3
6 -1 10 4 10 6 0 11 -4 11 -10z m-147 -74 c135 -118 156 -143 47 -55 -58 46
-71 54 -65 36 3 -7 39 -38 80 -67 41 -30 75 -58 75 -63 0 -4 12 -20 26 -35
l26 -27 -7 25 c-8 25 -8 25 14 6 13 -12 17 -22 11 -26 -6 -4 19 -28 55 -54 36
-27 65 -51 65 -53 0 -3 -6 -1 -12 4 -7 5 -52 38 -100 72 -47 34 -89 69 -92 77
-3 8 -9 14 -13 13 -19 -3 -33 3 -69 33 -22 17 -31 28 -21 25 9 -4 17 -2 17 3
0 6 -4 10 -8 10 -5 0 -30 21 -55 46 -55 54 -64 47 -10 -8 47 -48 36 -49 -17
-2 -40 37 -56 82 -24 70 12 -4 15 -2 10 9 -9 24 2 18 67 -39z m198 27 c13 -16
12 -17 -3 -4 -10 7 -18 15 -18 17 0 8 8 3 21 -13z m958 -66 c-2 -1 -19 -12
-36 -25 -18 -12 -33 -18 -33 -12 0 12 62 52 69 45 2 -3 2 -6 0 -8z m71 -22
c-16 -19 -6 -19 23 0 15 9 27 11 37 5 8 -5 10 -10 5 -10 -15 0 -49 -27 -112
-88 -30 -29 -58 -50 -63 -47 -5 3 -12 0 -16 -6 -4 -8 -3 -9 4 -5 7 4 12 5 12
3 0 -2 -42 -32 -94 -67 -52 -34 -97 -68 -100 -75 -5 -14 -114 -90 -199 -139
-32 -18 -54 -25 -69 -20 -21 6 -21 7 5 21 15 7 27 19 27 24 0 7 -11 4 -26 -6
-16 -10 -29 -13 -33 -8 -3 6 -13 12 -21 15 -10 4 -6 9 15 18 64 26 138 69 153
88 6 9 12 12 12 6 0 -5 7 0 16 11 8 11 18 20 22 20 13 1 72 39 72 47 0 4 5 8
11 8 6 0 30 16 55 36 29 24 49 34 61 30 10 -4 14 -4 11 0 -14 14 147 128 165
117 7 -3 9 -3 5 2 -4 4 0 14 10 21 23 18 27 17 12 -1z m-935 -35 c10 -11 16
-20 13 -20 -3 0 -13 9 -23 20 -10 11 -16 20 -13 20 3 0 13 -9 23 -20z m635
-50 c-19 -17 -39 -30 -44 -30 -5 0 8 13 30 30 50 38 59 38 14 0z m-493 -60
c18 -13 31 -25 28 -28 -4 -5 -125 86 -125 95 0 3 15 -6 33 -19 17 -13 47 -35
64 -48z m518 40 c-10 -11 -34 -29 -54 -40 -35 -20 -35 -19 9 19 47 42 76 56
45 21z m-105 -35 c0 -2 -10 -9 -22 -15 -22 -11 -22 -10 -4 4 21 17 26 19 26
11z m10 -39 c0 -2 -8 -10 -17 -17 -16 -13 -17 -12 -4 4 13 16 21 21 21 13z"/>
<path d="M5970 9701 c0 -17 4 -32 8 -35 4 -2 6 11 4 30 -5 42 -12 45 -12 5z"/>
<path d="M6030 9700 c0 -5 5 -10 11 -10 15 0 6 -44 -11 -52 -11 -5 -9 -7 7 -7
12 -1 25 4 28 9 3 6 1 10 -6 10 -10 0 -10 3 -1 12 17 17 15 26 -8 38 -14 7
-20 7 -20 0z"/>
<path d="M5663 9664 c-9 -4 -9 -11 -1 -30 13 -28 17 -29 43 -10 16 12 17 16 6
30 -14 16 -26 19 -48 10z m30 -10 c9 -9 -4 -35 -14 -28 -5 3 -9 12 -9 20 0 14
12 19 23 8z"/>
<path d="M5573 9636 c4 -10 7 -24 7 -32 0 -8 4 -14 9 -14 11 0 1 49 -12 57 -7
4 -8 0 -4 -11z"/>
<path d="M5988 9623 c7 -3 16 -2 19 1 4 3 -2 6 -13 5 -11 0 -14 -3 -6 -6z"/>
<path d="M5535 9609 c-10 -15 1 -23 20 -15 9 3 13 10 10 16 -8 13 -22 13 -30
-1z"/>
<path d="M5900 9610 c-20 -6 -21 -8 -5 -8 11 0 34 4 50 8 27 7 27 8 5 8 -14 0
-36 -4 -50 -8z"/>
<path d="M5838 9593 c7 -3 16 -2 19 1 4 3 -2 6 -13 5 -11 0 -14 -3 -6 -6z"/>
<path d="M5778 9583 c6 -2 18 -2 25 0 6 3 1 5 -13 5 -14 0 -19 -2 -12 -5z"/>
<path d="M5198 9558 c-21 -12 -38 -29 -38 -37 0 -14 1 -14 10 -1 5 8 10 12 11
8 1 -5 2 -11 3 -15 6 -31 44 -43 74 -24 11 6 11 15 0 49 -7 23 -15 42 -18 42
-3 0 -22 -10 -42 -22z"/>
<path d="M5260 9568 c0 -18 12 -33 33 -41 21 -8 22 2 1 31 -17 24 -34 29 -34
10z"/>
<path d="M5738 9573 c7 -3 16 -2 19 1 4 3 -2 6 -13 5 -11 0 -14 -3 -6 -6z"/>
<path d="M5380 9535 l-23 -25 26 0 c14 0 38 5 52 10 23 9 25 13 15 25 -18 22
-43 18 -70 -10z m47 -1 c-3 -3 -12 -4 -19 -1 -8 3 -5 6 6 6 11 1 17 -2 13 -5z"/>
<path d="M5628 9553 c7 -3 16 -2 19 1 4 3 -2 6 -13 5 -11 0 -14 -3 -6 -6z"/>
<path d="M5760 9490 c-91 -21 -185 -45 -210 -54 -25 -8 -178 -49 -340 -90
-162 -42 -347 -89 -410 -106 -63 -17 -155 -42 -205 -54 -49 -13 -144 -39 -210
-59 -66 -19 -230 -67 -365 -106 -305 -89 -671 -203 -666 -208 5 -6 374 101
751 217 264 81 321 97 440 125 55 13 170 43 255 67 85 25 252 68 370 97 118
29 253 64 299 77 47 14 168 45 270 70 170 41 242 64 201 63 -8 0 -89 -18 -180
-39z"/>
<path d="M5228 9463 c7 -3 16 -2 19 1 4 3 -2 6 -13 5 -11 0 -14 -3 -6 -6z"/>
<path d="M5671 9364 c0 -11 3 -14 6 -6 3 7 2 16 -1 19 -3 4 -6 -2 -5 -13z"/>
<path d="M5682 9305 c0 -16 2 -22 5 -12 2 9 2 23 0 30 -3 6 -5 -1 -5 -18z"/>
<path d="M5887 9245 c3 -22 7 -42 9 -44 8 -9 2 45 -6 64 -7 14 -8 8 -3 -20z"/>
<path d="M5691 9218 c0 -31 3 -37 8 -24 7 18 3 66 -5 66 -2 0 -4 -19 -3 -42z"/>
<path d="M3845 9215 c-22 -7 -31 -13 -20 -13 11 0 36 6 55 13 45 17 17 18 -35
0z"/>
<path d="M5902 9150 c0 -14 2 -19 5 -12 2 6 2 18 0 25 -3 6 -5 1 -5 -13z"/>
<path d="M5696 9152 c-2 -4 -1 -14 5 -22 7 -12 9 -10 9 8 0 23 -5 28 -14 14z"/>
<path d="M5712 9075 c0 -16 2 -22 5 -12 2 9 2 23 0 30 -3 6 -5 -1 -5 -18z"/>
<path d="M5912 9065 c0 -16 2 -22 5 -12 2 9 2 23 0 30 -3 6 -5 -1 -5 -18z"/>
<path d="M6181 9024 c0 -11 3 -14 6 -6 3 7 2 16 -1 19 -3 4 -6 -2 -5 -13z"/>
<path d="M5722 9005 c-1 -11 5 -54 13 -95 13 -73 14 -74 9 -15 -6 64 -22 143
-22 110z"/>
<path d="M5922 8985 c0 -16 2 -22 5 -12 2 9 2 23 0 30 -3 6 -5 -1 -5 -18z"/>
<path d="M6192 8975 c0 -16 2 -22 5 -12 2 9 2 23 0 30 -3 6 -5 -1 -5 -18z"/>
<path d="M5507 8969 c10 -10 9 -16 -4 -31 -20 -22 -11 -24 11 -2 21 20 20 30
-1 39 -14 5 -15 4 -6 -6z"/>
<path d="M5498 8883 c7 -3 16 -2 19 1 4 3 -2 6 -13 5 -11 0 -14 -3 -6 -6z"/>
<path d="M5375 8850 c-13 -5 -14 -9 -5 -9 8 0 24 4 35 9 13 5 14 9 5 9 -8 0
-24 -4 -35 -9z"/>
<path d="M5265 8820 c-13 -5 -14 -9 -5 -9 8 0 24 4 35 9 13 5 14 9 5 9 -8 0
-24 -4 -35 -9z"/>
<path d="M5751 8806 c-1 -34 21 -166 25 -151 2 6 -3 48 -10 95 -8 47 -14 72
-15 56z"/>
<path d="M5942 8810 c0 -14 2 -19 5 -12 2 6 2 18 0 25 -3 6 -5 1 -5 -13z"/>
<path d="M2858 8793 c7 -3 16 -2 19 1 4 3 -2 6 -13 5 -11 0 -14 -3 -6 -6z"/>
<path d="M5188 8793 c7 -3 16 -2 19 1 4 3 -2 6 -13 5 -11 0 -14 -3 -6 -6z"/>
<path d="M5135 8780 c-13 -6 -15 -9 -5 -9 8 0 22 4 30 9 18 12 2 12 -25 0z"/>
<path d="M2788 8773 c7 -3 16 -2 19 1 4 3 -2 6 -13 5 -11 0 -14 -3 -6 -6z"/>
<path d="M5952 8760 c0 -14 2 -19 5 -12 2 6 2 18 0 25 -3 6 -5 1 -5 -13z"/>
<path d="M2715 8760 c-13 -5 -14 -9 -5 -9 8 0 24 4 35 9 13 5 14 9 5 9 -8 0
-24 -4 -35 -9z"/>
<path d="M5043 8759 c-18 -5 -33 -12 -33 -14 0 -6 58 5 85 16 l20 8 -20 -1
c-11 0 -35 -4 -52 -9z"/>
<path d="M2668 8743 c7 -3 16 -2 19 1 4 3 -2 6 -13 5 -11 0 -14 -3 -6 -6z"/>
<path d="M2590 8725 c-19 -7 -28 -13 -20 -13 8 0 31 6 50 13 19 7 28 13 20 13
-8 0 -31 -6 -50 -13z"/>
<path d="M4945 8730 c-13 -6 -15 -9 -5 -9 8 0 22 4 30 9 18 12 2 12 -25 0z"/>
<path d="M2490 8698 c-19 -6 -30 -12 -24 -14 5 -3 28 2 50 10 45 17 26 19 -26
4z"/>
<path d="M4808 8693 c7 -3 16 -2 19 1 4 3 -2 6 -13 5 -11 0 -14 -3 -6 -6z"/>
<path d="M2905 8675 c-16 -7 -23 -14 -15 -14 8 0 26 6 40 14 32 18 14 18 -25
0z"/>
<path d="M2215 8616 c-243 -71 -305 -93 -305 -109 0 -30 22 -86 39 -101 18
-17 29 -14 238 53 240 77 420 130 449 132 11 1 6 4 -11 8 -16 3 -48 1 -70 -6
-122 -37 -413 -129 -493 -155 -60 -19 -97 -27 -103 -21 -6 6 -12 29 -14 52 -4
42 -3 43 38 61 23 10 132 44 242 75 188 54 253 76 215 73 -8 0 -109 -28 -225
-62z"/>
<path d="M5552 8640 c0 -14 2 -19 5 -12 2 6 2 18 0 25 -3 6 -5 1 -5 -13z"/>
<path d="M6251 8634 c0 -11 3 -14 6 -6 3 7 2 16 -1 19 -3 4 -6 -2 -5 -13z"/>
<path d="M2460 8621 c0 -13 -67 -34 -91 -28 -25 7 -79 -14 -79 -29 0 -13 37
-7 46 7 3 5 18 9 33 9 30 0 90 18 104 30 5 4 4 11 -2 14 -6 4 -11 3 -11 -3z"/>
<path d="M2668 8603 c7 -3 16 -2 19 1 4 3 -2 6 -13 5 -11 0 -14 -3 -6 -6z"/>
<path d="M5561 8584 c0 -11 3 -14 6 -6 3 7 2 16 -1 19 -3 4 -6 -2 -5 -13z"/>
<path d="M5972 8565 c0 -16 2 -22 5 -12 2 9 2 23 0 30 -3 6 -5 -1 -5 -18z"/>
<path d="M2197 8562 c-16 -2 -27 -9 -24 -15 5 -15 56 -22 69 -9 14 14 -13 28
-45 24z"/>
<path d="M5572 8530 c0 -14 4 -38 8 -55 7 -27 8 -27 8 -5 0 14 -4 39 -8 55 -7
27 -8 27 -8 5z"/>
<path d="M5792 8520 c0 -14 2 -19 5 -12 2 6 2 18 0 25 -3 6 -5 1 -5 -13z"/>
<path d="M2048 8508 c-55 -19 -83 -47 -35 -34 12 3 46 11 75 18 29 6 51 17 49
23 -6 16 -28 15 -89 -7z"/>
<path d="M5982 8490 c0 -14 2 -19 5 -12 2 6 2 18 0 25 -3 6 -5 1 -5 -13z"/>
<path d="M5802 8460 c0 -19 2 -27 5 -17 2 9 2 25 0 35 -3 9 -5 1 -5 -18z"/>
<path d="M2570 8469 c0 -5 5 -7 10 -4 6 3 10 8 10 11 0 2 -4 4 -10 4 -5 0 -10
-5 -10 -11z"/>
<path d="M2580 8440 c-9 -6 -10 -10 -3 -10 6 0 15 5 18 10 8 12 4 12 -15 0z"/>
<path d="M2320 8430 c0 -5 5 -10 11 -10 5 0 7 5 4 10 -3 6 -8 10 -11 10 -2 0
-4 -4 -4 -10z"/>
<path d="M2267 8423 c-4 -3 -7 -11 -7 -17 0 -7 3 -7 8 0 4 7 16 14 27 17 19 5
19 5 -1 6 -11 0 -24 -2 -27 -6z"/>
<path d="M2580 8410 c-8 -5 -10 -10 -5 -10 6 0 17 5 25 10 8 5 11 10 5 10 -5
0 -17 -5 -25 -10z"/>
<path d="M5992 8400 c0 -14 2 -19 5 -12 2 6 2 18 0 25 -3 6 -5 1 -5 -13z"/>
<path d="M6302 8390 c0 -14 2 -19 5 -12 2 6 2 18 0 25 -3 6 -5 1 -5 -13z"/>
<path d="M6312 8330 c0 -19 2 -27 5 -17 2 9 2 25 0 35 -3 9 -5 1 -5 -18z"/>
<path d="M5821 8334 c0 -11 3 -14 6 -6 3 7 2 16 -1 19 -3 4 -6 -2 -5 -13z"/>
<path d="M6002 8330 c-1 -14 3 -43 7 -65 6 -26 9 -31 9 -15 1 14 -3 43 -7 65
-6 26 -9 31 -9 15z"/>
<path d="M2163 8333 c-19 -7 -16 -27 7 -48 16 -15 23 -16 33 -6 9 10 8 11 -8
6 -16 -4 -15 -3 3 6 22 12 29 33 13 43 -5 3 -11 -1 -15 -9 -3 -8 -13 -15 -23
-15 -17 1 -16 2 1 15 19 15 14 19 -11 8z"/>
<path d="M5612 8305 c0 -16 2 -22 5 -12 2 9 2 23 0 30 -3 6 -5 -1 -5 -18z"/>
<path d="M2042 8250 c0 -14 2 -19 5 -12 2 6 2 18 0 25 -3 6 -5 1 -5 -13z"/>
<path d="M6022 8180 c0 -14 2 -19 5 -12 2 6 2 18 0 25 -3 6 -5 1 -5 -13z"/>
<path d="M5851 8134 c0 -11 3 -14 6 -6 3 7 2 16 -1 19 -3 4 -6 -2 -5 -13z"/>
<path d="M6032 8115 c0 -16 2 -22 5 -12 2 9 2 23 0 30 -3 6 -5 -1 -5 -18z"/>
<path d="M5642 8105 c0 -16 2 -22 5 -12 2 9 2 23 0 30 -3 6 -5 -1 -5 -18z"/>
<path d="M2390 8090 c-8 -5 -12 -11 -10 -14 3 -2 14 2 24 10 22 15 10 19 -14
4z"/>
<path d="M2292 8075 c-18 -8 -31 -19 -27 -25 4 -6 12 -5 21 5 9 8 26 15 40 15
13 0 24 5 24 10 0 14 -19 12 -58 -5z"/>
<path d="M5656 8016 c8 -77 32 -200 32 -161 0 17 -8 73 -18 125 -15 73 -18 81
-14 36z"/>
<path d="M6042 8045 c0 -16 2 -22 5 -12 2 9 2 23 0 30 -3 6 -5 -1 -5 -18z"/>
<path d="M6052 7975 c0 -16 2 -22 5 -12 2 9 2 23 0 30 -3 6 -5 -1 -5 -18z"/>
<path d="M5882 7940 c0 -14 2 -19 5 -12 2 6 2 18 0 25 -3 6 -5 1 -5 -13z"/>
<path d="M6061 7909 c1 -19 5 -47 10 -64 5 -20 6 -9 2 30 -6 66 -14 88 -12 34z"/>
<path d="M2162 7869 c6 -16 12 -28 14 -26 5 5 -13 57 -20 57 -3 0 0 -14 6 -31z"/>
<path d="M5892 7880 c0 -14 2 -19 5 -12 2 6 2 18 0 25 -3 6 -5 1 -5 -13z"/>
<path d="M6372 7800 c0 -19 2 -27 5 -17 2 9 2 25 0 35 -3 9 -5 1 -5 -18z"/>
<path d="M5691 7789 c1 -19 5 -47 10 -64 5 -20 6 -9 2 30 -6 66 -14 88 -12 34z"/>
<path d="M5902 7790 c0 -14 2 -19 5 -12 2 6 2 18 0 25 -3 6 -5 1 -5 -13z"/>
<path d="M5912 7720 c0 -19 2 -27 5 -17 2 9 2 25 0 35 -3 9 -5 1 -5 -18z"/>
<path d="M6382 7715 c0 -16 2 -22 5 -12 2 9 2 23 0 30 -3 6 -5 -1 -5 -18z"/>
<path d="M6091 7694 c0 -11 3 -14 6 -6 3 7 2 16 -1 19 -3 4 -6 -2 -5 -13z"/>
<path d="M5922 7650 c0 -14 2 -19 5 -12 2 6 2 18 0 25 -3 6 -5 1 -5 -13z"/>
<path d="M6102 7640 c0 -14 2 -19 5 -12 2 6 2 18 0 25 -3 6 -5 1 -5 -13z"/>
<path d="M6393 7620 c0 -25 2 -35 4 -22 2 12 2 32 0 45 -2 12 -4 2 -4 -23z"/>
<path d="M5721 7570 c0 -8 4 -22 9 -30 12 -18 12 -2 0 25 -6 13 -9 15 -9 5z"/>
<path d="M6402 7520 c-1 -19 7 -81 18 -137 11 -57 31 -194 46 -305 27 -213 48
-329 38 -208 -11 129 -32 288 -62 455 -17 94 -33 184 -35 200 -4 29 -4 29 -5
-5z"/>
<path d="M5942 7500 c0 -14 2 -19 5 -12 2 6 2 18 0 25 -3 6 -5 1 -5 -13z"/>
<path d="M6132 7450 c0 -14 2 -19 5 -12 2 6 2 18 0 25 -3 6 -5 1 -5 -13z"/>
<path d="M5952 7435 c0 -16 2 -22 5 -12 2 9 2 23 0 30 -3 6 -5 -1 -5 -18z"/>
<path d="M6152 7320 c0 -14 2 -19 5 -12 2 6 2 18 0 25 -3 6 -5 1 -5 -13z"/>
<path d="M5971 7260 c0 -19 6 -55 13 -80 18 -57 19 -24 1 55 -11 50 -13 54
-14 25z"/>
<path d="M6162 7265 c0 -16 2 -22 5 -12 2 9 2 23 0 30 -3 6 -5 -1 -5 -18z"/>
<path d="M6172 7190 c0 -14 2 -19 5 -12 2 6 2 18 0 25 -3 6 -5 1 -5 -13z"/>
<path d="M6182 7120 c0 -19 2 -27 5 -17 2 9 2 25 0 35 -3 9 -5 1 -5 -18z"/>
<path d="M6002 7110 c0 -14 2 -19 5 -12 2 6 2 18 0 25 -3 6 -5 1 -5 -13z"/>
<path d="M6011 7064 c0 -11 3 -14 6 -6 3 7 2 16 -1 19 -3 4 -6 -2 -5 -13z"/>
<path d="M6191 7044 c0 -11 3 -14 6 -6 3 7 2 16 -1 19 -3 4 -6 -2 -5 -13z"/>
<path d="M2261 7014 c0 -11 3 -14 6 -6 3 7 2 16 -1 19 -3 4 -6 -2 -5 -13z"/>
<path d="M6202 7000 c0 -14 2 -19 5 -12 2 6 2 18 0 25 -3 6 -5 1 -5 -13z"/>
<path d="M6212 6930 c0 -14 4 -38 8 -55 7 -27 8 -27 8 -5 0 14 -4 39 -8 55 -7
27 -8 27 -8 5z"/>
<path d="M6232 6820 c0 -14 2 -19 5 -12 2 6 2 18 0 25 -3 6 -5 1 -5 -13z"/>
<path d="M6529 6691 c8 -49 17 -88 19 -86 8 8 -10 144 -22 160 -9 12 -8 -8 3
-74z"/>
<path d="M6241 6754 c0 -11 3 -14 6 -6 3 7 2 16 -1 19 -3 4 -6 -2 -5 -13z"/>
<path d="M5197 6543 c-158 -64 -286 -118 -284 -120 7 -6 94 26 317 118 232 96
281 118 265 118 -5 0 -139 -52 -298 -116z"/>
<path d="M5937 6613 c-37 -14 -66 -28 -63 -30 4 -4 136 44 145 52 9 10 -15 3
-82 -22z"/>
<path d="M2711 6604 c0 -11 3 -14 6 -6 3 7 2 16 -1 19 -3 4 -6 -2 -5 -13z"/>
<path d="M6281 6514 c0 -11 3 -14 6 -6 3 7 2 16 -1 19 -3 4 -6 -2 -5 -13z"/>
<path d="M5640 6500 c-8 -5 -10 -10 -5 -10 6 0 17 5 25 10 8 5 11 10 5 10 -5
0 -17 -5 -25 -10z"/>
<path d="M2741 6464 c0 -11 3 -14 6 -6 3 7 2 16 -1 19 -3 4 -6 -2 -5 -13z"/>
<path d="M5540 6464 c-19 -8 -63 -27 -98 -41 -34 -14 -61 -28 -59 -30 4 -3
197 74 205 82 9 9 -12 4 -48 -11z"/>
<path d="M5760 6440 c-8 -5 -10 -10 -5 -10 6 0 17 5 25 10 8 5 11 10 5 10 -5
0 -17 -5 -25 -10z"/>
<path d="M4795 6384 c-49 -19 -117 -43 -150 -54 -89 -30 -325 -123 -321 -127
2 -2 64 19 137 46 74 27 199 72 279 101 80 29 149 57 155 62 15 13 -4 8 -100
-28z"/>
<path d="M5670 6405 c-14 -8 -20 -14 -15 -14 6 0 21 6 35 14 14 8 21 14 15 14
-5 0 -21 -6 -35 -14z"/>
<path d="M6301 6384 c0 -11 3 -14 6 -6 3 7 2 16 -1 19 -3 4 -6 -2 -5 -13z"/>
<path d="M5235 6340 c-66 -27 -214 -86 -330 -130 -250 -97 -447 -181 -441
-187 2 -3 19 2 38 10 76 35 228 97 237 97 5 0 78 29 163 64 84 35 224 91 311
126 141 56 173 71 150 70 -5 -1 -62 -23 -128 -50z"/>
<path d="M5475 6326 c-126 -52 -228 -101 -175 -82 32 10 334 137 339 141 12
12 -25 -1 -164 -59z"/>
<path d="M6310 6338 c0 -14 -12 -31 -29 -43 -38 -25 -34 -30 7 -9 25 12 32 22
32 45 0 16 -2 29 -5 29 -3 0 -5 -10 -5 -22z"/>
<path d="M2456 6255 c2 -33 16 -112 29 -175 13 -63 21 -90 18 -60 -3 30 -16
109 -29 175 -16 80 -22 100 -18 60z"/>
<path d="M6433 6283 c-49 -19 -63 -30 -63 -46 0 -20 0 -20 23 1 25 23 52 29
62 12 10 -16 67 18 63 37 -5 25 -18 24 -85 -4z"/>
<path d="M6175 6245 c-27 -13 -45 -23 -40 -24 6 0 33 11 60 24 28 13 46 23 40
24 -5 0 -32 -11 -60 -24z"/>
<path d="M5235 6225 c-25 -12 -26 -14 -5 -9 14 4 29 10 35 15 12 12 5 11 -30
-6z"/>
<path d="M6404 6226 c-10 -8 -16 -17 -13 -20 10 -10 39 5 39 20 0 17 -2 17
-26 0z"/>
<path d="M4241 6177 c-30 -11 -50 -22 -44 -24 6 -2 35 7 64 21 66 30 54 31
-20 3z"/>
<path d="M5150 6190 c-8 -5 -10 -10 -5 -10 6 0 17 5 25 10 8 5 11 10 5 10 -5
0 -17 -5 -25 -10z"/>
<path d="M5080 6160 c-8 -5 -10 -10 -5 -10 6 0 17 5 25 10 8 5 11 10 5 10 -5
0 -17 -5 -25 -10z"/>
<path d="M5990 6160 c-8 -5 -10 -10 -5 -10 6 0 17 5 25 10 8 5 11 10 5 10 -5
0 -17 -5 -25 -10z"/>
<path d="M4150 6140 c-8 -5 -10 -10 -5 -10 6 0 17 5 25 10 8 5 11 10 5 10 -5
0 -17 -5 -25 -10z"/>
<path d="M4100 6120 c-8 -5 -10 -10 -5 -10 6 0 17 5 25 10 8 5 11 10 5 10 -5
0 -17 -5 -25 -10z"/>
<path d="M4050 6100 c-8 -5 -10 -10 -5 -10 6 0 17 5 25 10 8 5 11 10 5 10 -5
0 -17 -5 -25 -10z"/>
<path d="M4935 6100 c-3 -6 1 -7 9 -4 18 7 21 14 7 14 -6 0 -13 -4 -16 -10z"/>
<path d="M5970 6097 c0 -7 7 -22 15 -33 13 -17 14 -16 4 14 -11 33 -19 41 -19
19z"/>
<path d="M5930 6089 c0 -9 7 -22 15 -29 19 -16 19 0 0 26 -12 16 -14 16 -15 3z"/>
<path d="M5890 6074 c0 -8 5 -12 10 -9 6 3 10 10 10 16 0 5 -4 9 -10 9 -5 0
-10 -7 -10 -16z"/>
<path d="M4350 5980 c-8 -5 -10 -10 -5 -10 6 0 17 5 25 10 8 5 11 10 5 10 -5
0 -17 -5 -25 -10z"/>
<path d="M3655 5945 c-25 -12 -26 -14 -5 -9 28 7 60 23 45 23 -5 0 -23 -6 -40
-14z"/>
<path d="M4156 5904 c-72 -30 -177 -70 -235 -90 -59 -20 -117 -43 -131 -51
-29 -16 -30 -17 129 38 107 38 338 131 371 150 38 22 -16 3 -134 -47z"/>
<path d="M3530 5900 c-8 -5 -10 -10 -5 -10 6 0 17 5 25 10 8 5 11 10 5 10 -5
0 -17 -5 -25 -10z"/>
<path d="M3420 5860 c-8 -5 -10 -10 -5 -10 6 0 17 5 25 10 8 5 11 10 5 10 -5
0 -17 -5 -25 -10z"/>
<path d="M3340 5830 c-8 -5 -10 -10 -5 -10 6 0 17 5 25 10 8 5 11 10 5 10 -5
0 -17 -5 -25 -10z"/>
<path d="M2682 5700 c0 -14 2 -19 5 -12 2 6 2 18 0 25 -3 6 -5 1 -5 -13z"/>
<path d="M3820 5640 c-8 -5 -10 -10 -5 -10 6 0 17 5 25 10 8 5 11 10 5 10 -5
0 -17 -5 -25 -10z"/>
<path d="M2701 5615 c0 -11 4 -27 9 -35 9 -13 10 -13 9 0 0 8 -4 24 -9 35 l-9
20 0 -20z"/>
<path d="M2621 5594 c0 -16 4 -38 9 -49 6 -13 7 -5 3 25 -7 53 -13 66 -12 24z"/>
<path d="M3390 5610 c-8 -5 -10 -10 -5 -10 6 0 17 5 25 10 8 5 11 10 5 10 -5
0 -17 -5 -25 -10z"/>
<path d="M3325 5585 c-25 -12 -26 -14 -5 -9 28 7 60 23 45 23 -5 0 -23 -6 -40
-14z"/>
<path d="M3670 5580 c-8 -5 -10 -10 -5 -10 6 0 17 5 25 10 8 5 11 10 5 10 -5
0 -17 -5 -25 -10z"/>
<path d="M2741 5404 c0 -11 3 -14 6 -6 3 7 2 16 -1 19 -3 4 -6 -2 -5 -13z"/>
<path d="M2840 5400 c-8 -5 -10 -10 -5 -10 6 0 17 5 25 10 8 5 11 10 5 10 -5
0 -17 -5 -25 -10z"/>
<path d="M3064 5394 c-18 -14 -18 -15 4 -4 12 6 22 13 22 15 0 8 -5 6 -26 -11z"/>
<path d="M2995 5390 c-3 -5 -2 -10 4 -10 5 0 13 5 16 10 3 6 2 10 -4 10 -5 0
-13 -4 -16 -10z"/>
<path d="M2960 5365 c-7 -9 -10 -18 -7 -21 3 -3 10 4 17 15 13 25 8 27 -10 6z"/>
<path d="M2885 4700 c3 -5 11 -10 16 -10 6 0 7 5 4 10 -3 6 -11 10 -16 10 -6
0 -7 -4 -4 -10z"/>
<path d="M2900 4580 c-8 -5 -10 -10 -5 -10 6 0 17 5 25 10 8 5 11 10 5 10 -5
0 -17 -5 -25 -10z"/>
<path d="M6085 5839 c-33 -16 -54 -29 -47 -29 15 0 112 48 112 55 0 6 5 8 -65
-26z"/>
<path d="M5975 5820 c-3 -6 1 -7 9 -4 18 7 21 14 7 14 -6 0 -13 -4 -16 -10z"/>
<path d="M5935 5800 c-3 -6 1 -7 9 -4 18 7 21 14 7 14 -6 0 -13 -4 -16 -10z"/>
<path d="M5995 5800 c-3 -6 1 -7 9 -4 18 7 21 14 7 14 -6 0 -13 -4 -16 -10z"/>
<path d="M5920 5770 c-18 -12 -2 -12 25 0 13 6 15 9 5 9 -8 0 -22 -4 -30 -9z"/>
<path d="M5850 5760 c-8 -5 -10 -10 -5 -10 6 0 17 5 25 10 8 5 11 10 5 10 -5
0 -17 -5 -25 -10z"/>
<path d="M5800 5740 c-8 -5 -10 -10 -5 -10 6 0 17 5 25 10 8 5 11 10 5 10 -5
0 -17 -5 -25 -10z"/>
<path d="M5680 5700 c-13 -9 -13 -10 0 -10 8 0 22 5 30 10 13 9 13 10 0 10 -8
0 -22 -5 -30 -10z"/>
<path d="M5570 5660 c-36 -16 -61 -29 -55 -30 13 0 145 50 145 56 0 9 -29 1
-90 -26z"/>
<path d="M5290 5550 c-8 -5 -10 -10 -5 -10 6 0 17 5 25 10 8 5 11 10 5 10 -5
0 -17 -5 -25 -10z"/>
<path d="M5145 5489 c-165 -74 -195 -89 -195 -94 0 -6 20 3 135 55 121 54 170
79 160 79 -5 0 -50 -18 -100 -40z"/>
<path d="M4910 5380 c-8 -5 -10 -10 -5 -10 6 0 17 5 25 10 8 5 11 10 5 10 -5
0 -17 -5 -25 -10z"/>
<path d="M4835 5340 c-3 -6 1 -7 9 -4 18 7 21 14 7 14 -6 0 -13 -4 -16 -10z"/>
<path d="M4325 5120 c-3 -6 1 -7 9 -4 18 7 21 14 7 14 -6 0 -13 -4 -16 -10z"/>
<path d="M4274 5095 c-10 -8 -14 -14 -9 -14 6 0 19 6 29 14 11 8 15 15 10 15
-6 0 -19 -7 -30 -15z"/>
<path d="M4200 5060 c-19 -11 -30 -19 -25 -19 6 0 26 8 45 19 19 11 31 19 25
19 -5 0 -26 -8 -45 -19z"/>
<path d="M4075 5006 c-92 -45 -79 -46 16 -1 41 19 69 34 64 35 -6 0 -42 -15
-80 -34z"/>
<path d="M3700 4835 c-25 -13 -40 -24 -35 -24 6 0 30 11 55 24 25 13 41 24 35
24 -5 0 -30 -11 -55 -24z"/>
<path d="M3594 4784 c-18 -14 -18 -14 6 -3 31 14 36 19 24 19 -6 0 -19 -7 -30
-16z"/>
<path d="M5720 5190 c-8 -5 -10 -10 -5 -10 6 0 17 5 25 10 8 5 11 10 5 10 -5
0 -17 -5 -25 -10z"/>
<path d="M5675 5170 c-3 -6 1 -7 9 -4 18 7 21 14 7 14 -6 0 -13 -4 -16 -10z"/>
<path d="M5273 4980 c-13 -5 -23 -11 -23 -14 0 -7 40 6 46 15 6 10 6 10 -23
-1z"/>
<path d="M5141 4894 c0 -11 3 -14 6 -6 3 7 2 16 -1 19 -3 4 -6 -2 -5 -13z"/>
<path d="M5110 4894 c0 -5 -8 -10 -17 -11 -10 -1 -40 -12 -68 -24 -27 -13 -53
-22 -57 -21 -3 1 -8 -4 -11 -12 -3 -7 1 -13 9 -13 8 0 14 5 14 10 0 5 7 4 15
-3 12 -10 18 -10 30 0 8 7 15 10 15 6 0 -4 11 1 25 10 14 9 22 20 20 25 -3 4
3 6 15 4 24 -5 37 12 21 28 -6 6 -11 7 -11 1z m-45 -44 c-3 -5 -14 -10 -23 -9
-14 0 -13 2 3 9 27 11 27 11 20 0z"/>
<path d="M3960 4406 c0 -2 9 -6 20 -9 11 -3 18 -1 14 4 -5 9 -34 13 -34 5z"/>
<path d="M2652 4030 c0 -14 2 -19 5 -12 2 6 2 18 0 25 -3 6 -5 1 -5 -13z"/>
<path d="M9915 3590 c-3 -5 -2 -10 4 -10 5 0 13 5 16 10 3 6 2 10 -4 10 -5 0
-13 -4 -16 -10z"/>
<path d="M7325 2090 c-3 -5 -2 -10 4 -10 5 0 13 5 16 10 3 6 2 10 -4 10 -5 0
-13 -4 -16 -10z"/>
<path d="M7258 2052 c-21 -14 -36 -28 -33 -30 4 -5 85 47 85 54 0 8 -17 1 -52
-24z"/>
<path d="M6940 1760 c-9 -6 -10 -10 -3 -10 6 0 15 5 18 10 8 12 4 12 -15 0z"/>
<path d="M6370 1374 c-36 -25 -67 -48 -70 -51 -10 -11 47 21 95 55 58 39 61
42 49 41 -5 0 -38 -21 -74 -45z"/>
<path d="M7239 1803 c-13 -16 -12 -17 4 -4 16 13 21 21 13 21 -2 0 -10 -8 -17
-17z"/>
<path d="M6423 1310 c-18 -11 -33 -22 -33 -25 0 -8 58 23 65 35 9 14 5 13 -32
-10z"/>
<path d="M6310 1239 c-24 -16 -41 -29 -36 -29 9 0 96 50 96 56 0 9 -17 1 -60
-27z"/>
<path d="M4895 1064 c38 -30 61 -36 32 -10 -15 14 -33 26 -40 26 -7 0 -3 -8 8
-16z"/>
<path d="M5926 1015 c-11 -8 -15 -15 -9 -15 7 0 15 5 18 10 4 6 10 8 15 5 5
-3 11 -1 15 5 9 15 -17 12 -39 -5z"/>
<path d="M5639 789 c-23 -19 -23 -20 -2 -10 12 6 25 16 28 21 10 16 -1 12 -26
-11z"/>
<path d="M7234 5609 l-29 -31 31 15 c17 9 34 23 37 32 10 24 -7 17 -39 -16z"/>
<path d="M7130 5545 c-19 -7 -75 -32 -125 -55 -49 -23 -157 -64 -240 -92 -176
-59 -187 -64 -163 -73 34 -13 319 88 398 141 19 13 55 31 80 39 25 9 56 24 70
35 28 22 28 22 -20 5z"/>
<path d="M7467 5523 l-58 -36 38 -31 c21 -17 46 -39 55 -48 10 -10 20 -18 23
-18 3 0 8 0 13 0 4 0 -20 -15 -53 -33 -154 -85 -231 -130 -246 -143 -8 -8 -22
-14 -30 -14 -8 0 -34 -9 -58 -20 l-44 -20 -32 34 c-18 19 -35 42 -38 50 -4 9
-12 16 -18 16 -7 0 -4 9 7 21 19 22 19 22 -3 10 -13 -6 -23 -16 -23 -22 0 -6
-4 -8 -10 -4 -5 3 -18 0 -28 -6 -17 -10 -14 -16 35 -62 29 -27 53 -53 53 -57
0 -9 -136 -91 -155 -94 -7 -1 -19 -7 -26 -13 -8 -6 -33 -20 -56 -32 l-42 -21
-43 47 c-24 25 -49 52 -55 59 -10 10 -6 16 20 32 17 10 47 25 65 32 51 20 32
21 -23 1 -135 -49 -139 -56 -75 -129 22 -25 39 -50 37 -56 -3 -10 -60 -50
-164 -115 -27 -16 -42 -20 -53 -14 -24 16 -68 86 -63 101 4 10 -2 12 -23 7
-25 -5 -24 -3 12 17 44 25 124 88 111 88 -11 0 -88 -40 -119 -61 -14 -11 -32
-17 -40 -14 -8 3 -24 -3 -36 -14 l-23 -19 49 -59 c27 -32 57 -65 68 -73 15
-11 16 -11 7 0 -23 25 -14 32 13 11 15 -12 33 -21 42 -21 12 0 12 -3 2 -15
-11 -13 -7 -15 26 -15 69 -1 161 -56 166 -100 2 -19 -7 -31 -44 -56 -26 -17
-44 -35 -40 -39 4 -5 2 -5 -4 -2 -11 6 -85 -41 -99 -62 -14 -24 -44 -7 -118
67 l-78 79 35 27 c20 15 58 39 86 53 40 21 48 29 39 39 -6 8 -15 14 -18 14 -4
0 -46 -25 -95 -55 -48 -30 -91 -55 -96 -55 -10 0 -120 103 -120 112 0 3 29 25
65 47 36 23 65 44 65 46 0 3 -42 -17 -92 -44 -63 -32 -94 -55 -96 -68 -2 -12
16 -38 49 -71 l52 -52 -24 -21 c-13 -12 -67 -43 -119 -69 -52 -26 -122 -63
-154 -83 -48 -30 -61 -34 -70 -23 -6 7 -40 39 -75 71 -56 51 -65 56 -73 40 -8
-14 1 -29 52 -80 l62 -63 -64 -36 c-36 -20 -72 -36 -80 -36 -8 0 -39 -8 -69
-18 l-54 -18 -48 47 -47 46 57 45 c32 25 69 51 83 58 15 8 20 15 12 18 -6 2
-34 -10 -60 -26 -26 -16 -58 -33 -70 -36 -30 -10 -82 -55 -82 -72 0 -7 21 -37
47 -66 44 -49 45 -53 25 -56 -13 -2 -33 -20 -47 -42 -18 -29 -37 -43 -77 -58
-50 -19 -55 -19 -81 -3 -16 9 -51 39 -78 68 -40 42 -47 53 -34 60 11 7 6 9
-19 10 -26 1 -41 -6 -63 -29 -19 -21 -24 -32 -15 -35 7 -3 36 -20 63 -39 28
-19 54 -34 59 -34 4 0 10 -14 14 -32 7 -37 -4 -53 -88 -115 -83 -62 -118 -60
-200 9 -33 29 -68 61 -77 72 -16 19 -18 19 -43 3 -28 -18 -34 -37 -13 -37 9 0
9 -2 -1 -9 -10 -6 -4 -14 25 -31 47 -29 93 -70 93 -84 -1 -15 -106 -90 -154
-110 -21 -9 -48 -16 -61 -16 -22 0 -125 89 -125 109 0 5 18 20 40 32 22 12 38
24 36 27 -6 6 -69 -29 -84 -47 -8 -9 -10 -10 -6 -2 5 11 1 12 -22 7 -16 -4
-30 -9 -32 -11 -5 -5 21 -55 29 -55 17 0 79 -63 79 -81 0 -22 -81 -85 -158
-123 -63 -31 -62 -30 -62 -11 0 9 -11 27 -25 41 -33 33 -32 40 3 20 15 -10 -1
10 -36 43 l-63 59 38 33 c32 27 33 29 8 14 -29 -17 -105 -89 -105 -99 0 -3 18
-26 40 -51 66 -76 67 -83 23 -101 -21 -8 -62 -27 -90 -40 -67 -32 -122 -49
-105 -32 17 17 15 27 -6 21 -13 -3 -24 7 -40 36 -13 22 -30 48 -39 57 -13 13
-14 17 -3 24 9 6 20 1 32 -12 10 -12 18 -17 18 -13 0 5 -7 16 -15 25 -14 16
-11 20 39 46 30 16 53 30 51 32 -5 5 -85 -37 -135 -72 -25 -17 -47 -32 -49
-33 -2 -1 12 -24 32 -50 19 -26 38 -58 42 -71 9 -31 -13 -85 -33 -77 -16 6
-122 -26 -122 -37 0 -16 -82 -91 -139 -128 -34 -22 -61 -43 -61 -47 0 -5 -4
-14 -9 -21 -7 -12 -13 -11 -37 1 -43 22 -101 79 -87 84 7 2 40 23 75 45 35 23
81 49 103 59 l40 18 31 -30 30 -29 20 21 c10 12 19 22 18 23 -22 40 -24 46
-12 46 7 0 0 12 -16 28 l-28 27 -16 -25 c-28 -41 -52 -60 -162 -121 -80 -45
-112 -58 -133 -54 -49 9 -50 -61 -1 -84 15 -6 24 -14 21 -18 -4 -3 -13 0 -22
7 -9 7 -18 10 -21 7 -10 -10 6 -58 16 -52 6 3 10 -1 10 -9 0 -8 15 -22 33 -31
18 -8 114 -87 213 -176 130 -116 214 -182 307 -240 70 -45 140 -93 155 -107
15 -15 75 -63 132 -107 57 -44 144 -116 193 -160 106 -95 224 -185 243 -185
24 0 15 19 -16 35 -32 17 -195 146 -321 255 -99 85 -303 241 -384 294 -129 83
-394 304 -430 357 -28 44 -27 46 17 23 30 -15 32 -15 45 2 12 17 15 16 50 -13
21 -17 37 -38 37 -47 -1 -9 2 -13 7 -10 9 5 78 -54 129 -109 84 -92 117 -120
199 -166 51 -28 96 -49 100 -46 5 2 15 -3 22 -12 8 -9 44 -42 81 -74 64 -55
68 -57 95 -45 133 62 138 64 148 49 6 -8 18 -11 28 -7 24 9 21 22 -5 26 -20 3
-18 6 16 21 31 14 41 15 48 5 7 -12 12 -4 10 14 -2 12 26 16 31 4 3 -7 -22
-32 -58 -59 -70 -50 -91 -77 -101 -124 -5 -26 -1 -35 22 -55 38 -31 134 -125
109 -106 -31 23 -53 32 -29 11 68 -58 101 -80 113 -75 8 3 11 0 7 -6 -3 -6 5
-23 19 -39 l26 -28 -17 29 -18 28 42 -21 c23 -11 47 -21 53 -21 7 0 54 27 105
59 51 33 116 72 146 87 29 14 60 32 68 38 8 7 53 27 100 46 47 19 110 53 140
77 30 23 98 64 150 91 114 59 133 70 279 158 63 38 145 87 182 109 38 22 110
65 161 95 51 30 116 66 143 81 113 60 267 146 380 212 672 398 968 585 999
631 9 14 23 26 31 26 18 0 101 45 315 170 170 100 306 176 470 265 52 28 124
73 160 99 128 92 236 164 295 195 87 47 166 98 165 108 0 4 -13 8 -28 9 -15 0
-37 6 -49 12 -12 7 -27 12 -33 12 -6 0 -62 30 -123 67 -150 89 -179 103 -213
99 -16 -2 -35 -4 -42 -5 -7 0 -10 -6 -6 -13 4 -6 3 -8 -4 -5 -13 9 -227 -105
-312 -164 -70 -50 -51 -54 -184 39 -42 29 -76 55 -76 57 0 10 355 215 366 211
7 -3 14 6 16 19 4 20 -7 32 -71 78 -42 30 -83 57 -91 60 -8 3 -51 22 -95 42
-71 32 -77 33 -55 12 14 -13 30 -24 35 -24 14 0 197 -101 230 -127 l27 -22
-58 -32 c-33 -18 -81 -46 -109 -62 -144 -86 -177 -102 -200 -98 -13 3 -22 1
-19 -3 9 -15 -10 -10 -62 14 -27 13 -89 39 -137 57 -68 26 -84 36 -69 41 11 4
23 13 27 19 4 6 64 49 134 95 145 95 158 107 137 124 -10 9 -15 8 -19 -3 -3
-8 -50 -40 -103 -72 -53 -31 -104 -64 -113 -73 -29 -28 -155 -110 -193 -126
-47 -19 -59 -14 -138 55 -36 31 -77 65 -92 76 l-27 21 122 70 c148 86 179 101
193 96 11 -3 41 24 33 30 -2 2 -39 25 -81 51 -43 26 -78 51 -78 56 0 5 15 20
33 34 45 36 32 32 -36 -11z m-132 -424 c41 -39 75 -75 75 -80 0 -16 -137 -99
-164 -99 -17 0 -39 13 -64 38 -20 21 -61 53 -90 72 -31 20 -48 36 -40 39 7 2
33 17 57 34 24 17 60 32 79 34 19 2 42 8 51 14 14 9 14 10 -2 5 -11 -3 -15 -2
-12 4 13 21 38 7 110 -61z m402 -94 c54 -30 104 -55 111 -55 8 0 12 -9 10 -21
-2 -15 -18 -27 -53 -40 -47 -18 -51 -18 -60 -3 -14 24 -32 40 -99 86 -57 40
-58 42 -35 50 17 7 33 5 54 -7 l30 -17 -25 21 c-14 11 -28 21 -32 21 -9 0 -11
20 -3 20 2 0 49 -25 102 -55z m-696 15 c45 -24 110 -80 140 -121 l20 -28 -48
-27 c-27 -15 -66 -40 -88 -55 l-41 -27 -58 44 c-32 24 -62 44 -67 44 -6 0 -8
4 -5 8 3 5 0 9 -7 9 -17 0 -127 63 -127 73 0 14 23 25 55 26 28 1 63 16 140
58 38 20 38 20 86 -4z m555 -48 c51 -38 104 -88 104 -99 0 -4 -48 -34 -106
-66 l-105 -58 -53 43 c-30 24 -53 44 -51 46 1 1 16 -3 34 -9 51 -18 48 -3 -4
20 -50 22 -70 27 -45 11 29 -19 -9 -10 -41 9 l-32 19 39 22 c22 11 54 30 73
42 40 25 98 47 127 48 12 0 39 -13 60 -28z m1136 -67 c89 -45 138 -81 138
-101 0 -8 5 -12 10 -9 6 3 10 4 10 1 0 -3 -30 -22 -67 -42 -85 -47 -226 -144
-219 -152 3 -2 12 1 21 8 8 7 15 10 15 7 0 -3 -15 -16 -32 -28 -22 -16 -28
-17 -19 -6 18 23 5 22 -26 -3 -14 -11 -20 -20 -12 -20 8 0 5 -6 -7 -14 -32
-23 -72 -14 -97 22 -24 35 -146 122 -215 154 l-43 21 53 29 c29 16 124 65 211
108 176 89 154 87 279 25z m-2017 -10 c-58 -28 -91 -33 -57 -9 24 17 67 32 92
33 8 0 -7 -11 -35 -24z m-10 -29 c-27 -14 -47 -25 -43 -25 4 -1 23 7 43 16 33
16 37 16 70 0 41 -20 47 -14 8 7 -16 8 -22 15 -16 16 7 0 30 -16 50 -35 20
-19 40 -35 44 -35 11 0 69 -51 69 -61 0 -14 -173 -94 -178 -81 -11 34 -66 92
-106 112 -25 12 -46 25 -46 28 0 7 27 25 95 64 17 9 37 17 45 17 8 1 -7 -10
-35 -23z m1245 10 c0 -8 11 -17 25 -20 14 -4 46 -27 72 -51 56 -54 58 -51 -73
-120 l-92 -49 -75 67 c-41 37 -83 67 -93 67 -17 1 -16 3 6 21 14 11 40 33 57
49 30 27 51 34 128 43 17 2 33 5 38 6 4 0 7 -5 7 -13z m-1330 -14 c0 -16 -72
-44 -83 -33 -8 8 -4 11 14 11 13 0 33 7 43 15 23 17 26 18 26 7z m752 -79 c32
-32 58 -62 58 -68 0 -5 -5 -3 -10 5 -8 12 -10 10 -10 -11 0 -14 -11 -36 -25
-49 -14 -13 -23 -25 -21 -28 3 -2 50 21 105 51 56 31 101 51 101 46 0 -5 18 2
40 16 22 14 46 25 53 25 7 0 26 -18 43 -40 16 -22 32 -40 36 -40 4 0 23 -14
43 -31 43 -38 44 -74 5 -102 -40 -29 -163 -89 -155 -77 6 9 2 9 -13 1 -28 -15
-42 -14 -42 2 0 18 -42 57 -67 61 -11 3 -45 17 -74 32 l-54 27 25 16 c53 35
64 52 17 26 -29 -16 -55 -24 -67 -20 -11 3 -39 -4 -67 -18 l-48 -25 -49 45
c-27 24 -71 55 -98 69 -73 37 -66 56 35 103 59 28 96 40 132 40 47 1 52 -2
107 -56z m1488 -31 c0 -5 -17 -16 -37 -26 -41 -19 -39 -13 4 15 34 21 33 21
33 11z m-1900 -17 c0 -5 -68 -35 -79 -35 -3 0 8 9 24 20 28 19 55 26 55 15z
m133 -99 c31 -23 35 -56 10 -78 -10 -9 -67 -45 -126 -81 l-108 -66 -32 31
c-18 17 -57 49 -87 72 -31 23 -55 45 -55 51 0 10 92 57 215 110 l75 32 40 -25
c22 -14 52 -34 68 -46z m1687 69 c0 -2 -10 -9 -22 -15 -22 -11 -22 -10 -4 4
21 17 26 19 26 11z m-545 -19 c18 -8 41 -26 50 -40 9 -14 26 -28 37 -31 29
-10 88 -65 88 -83 0 -9 -10 -27 -22 -41 -13 -14 -15 -19 -5 -12 14 11 17 11
17 -2 0 -9 -9 -21 -19 -27 -26 -13 -34 -13 -25 2 10 15 -31 -10 -148 -92 -51
-36 -110 -76 -133 -89 l-40 -24 34 37 c19 20 39 36 43 36 5 0 26 12 46 26 35
25 34 26 -13 8 -27 -10 -18 -1 46 46 53 41 76 50 63 28 -4 -7 -5 -11 -1 -8 3
3 5 8 4 11 -1 3 5 14 13 24 12 15 8 15 -27 -5 -53 -29 -139 -100 -122 -100 7
0 -5 -16 -27 -35 -37 -32 -62 -46 -50 -27 3 5 -18 5 -46 1 -72 -12 -321 -140
-304 -157 3 -3 15 3 26 13 11 10 20 15 20 12 0 -4 47 18 103 48 102 54 143 67
135 43 -3 -7 -56 -45 -119 -85 -219 -137 -252 -155 -213 -112 19 21 19 21 -9
8 -19 -9 -31 -9 -35 -3 -4 6 -33 29 -64 52 -31 23 -83 66 -114 95 l-58 54 35
31 c46 42 198 124 216 118 8 -3 40 12 72 33 152 104 443 260 484 261 15 0 43
-6 62 -14z m-1952 -50 c4 -10 1 -13 -9 -9 -7 3 -14 9 -14 14 0 14 17 10 23 -5z
m2407 9 c0 -2 -10 -9 -22 -15 -22 -11 -22 -10 -4 4 21 17 26 19 26 11z m-1505
-25 c10 -11 16 -20 13 -20 -3 0 -13 9 -23 20 -10 11 -16 20 -13 20 3 0 13 -9
23 -20z m-905 -56 c67 -45 110 -84 110 -100 0 -26 -159 -114 -206 -114 -16 0
-159 127 -159 142 0 8 179 108 195 108 3 0 30 -16 60 -36z m900 -9 c0 -20 -10
-30 -51 -51 -28 -14 -53 -23 -55 -21 -2 2 16 15 41 28 27 14 48 33 51 47 8 29
14 28 14 -3z m218 -10 c79 -37 122 -69 122 -92 0 -13 -48 -46 -120 -84 -22
-12 -38 -24 -36 -27 2 -4 -8 -8 -22 -9 -19 -1 -42 13 -82 49 -30 28 -67 60
-82 71 l-27 20 35 23 c24 17 44 22 62 19 l27 -5 -25 10 -25 11 40 24 c22 13
44 24 48 24 5 1 43 -15 85 -34z m-178 11 c0 -3 -4 -8 -10 -11 -5 -3 -10 -1
-10 4 0 6 5 11 10 11 6 0 10 -2 10 -4z m-470 -98 c87 -88 90 -92 73 -111 -10
-10 -52 -36 -93 -56 -41 -21 -97 -50 -123 -64 l-49 -26 -41 26 c-47 30 -147
104 -147 109 0 2 7 0 17 -3 12 -5 14 -3 8 7 -6 9 1 21 21 38 l29 25 -27 -17
c-44 -26 -33 -2 17 38 47 39 53 39 34 3 -12 -21 -11 -22 8 -4 11 10 36 20 54
23 29 5 46 -2 118 -50 83 -55 101 -64 101 -48 0 8 -119 107 -175 146 -18 13
-18 15 15 35 19 11 43 21 52 21 10 0 58 -41 108 -92z m1740 42 c0 -5 -5 -10
-11 -10 -5 0 -7 5 -4 10 3 6 8 10 11 10 2 0 4 -4 4 -10z m-1710 -41 c0 -6 -4
-7 -10 -4 -5 3 -10 11 -10 16 0 6 5 7 10 4 6 -3 10 -11 10 -16z m-779 -29 c18
-22 36 -37 41 -34 5 3 7 0 6 -8 -2 -7 2 -12 8 -11 6 1 23 -10 37 -25 l27 -28
-27 -28 c-26 -28 -177 -106 -204 -106 -8 0 -45 28 -84 61 -38 34 -80 66 -92
72 -13 5 -23 13 -23 17 0 4 10 12 23 19 12 6 37 23 56 36 19 14 43 25 55 25
12 1 46 12 76 25 30 13 58 24 62 24 4 1 21 -17 39 -39z m1217 -63 c33 -32 42
-47 37 -64 -3 -13 -1 -23 5 -23 6 0 9 -4 6 -9 -4 -5 0 -12 6 -14 7 -3 3 -6 -9
-6 -12 -1 -23 4 -25 11 -3 8 -14 5 -34 -9 -16 -11 -52 -34 -81 -51 -46 -28
-53 -29 -65 -15 -7 9 -48 41 -92 71 l-79 56 27 23 c31 26 22 31 -13 7 -22 -16
-23 -15 -19 2 2 10 38 42 80 71 l78 52 67 -30 c38 -17 87 -49 111 -72z m-812
54 c-17 -18 -116 -76 -116 -67 0 2 17 15 38 27 20 13 43 31 50 41 7 10 20 18
29 18 14 0 14 -2 -1 -19z m1024 -55 c0 -3 -4 -8 -10 -11 -5 -3 -10 -1 -10 4 0
6 5 11 10 11 6 0 10 -2 10 -4z m-1106 -40 c-8 -22 4 -38 73 -95 75 -63 74 -65
-36 -148 -92 -70 -121 -72 -186 -15 -37 33 -151 102 -168 102 -2 0 -7 -11 -9
-24 -3 -15 2 -27 14 -35 23 -14 31 -14 22 1 -9 15 8 4 69 -41 30 -22 47 -43
47 -56 0 -20 -69 -98 -71 -79 0 5 -4 -1 -9 -13 -5 -12 -17 -21 -27 -21 -23 1
-133 -51 -133 -63 0 -5 -5 -9 -12 -9 -6 0 -8 3 -5 6 15 15 -48 106 -97 141
-28 20 -53 39 -56 41 -3 2 3 8 13 13 9 6 15 14 12 19 -3 5 9 14 27 19 18 5 27
10 21 10 -7 1 -13 6 -13 12 0 5 4 8 9 5 7 -5 426 195 491 234 22 13 30 12 24
-4z m-586 -94 c39 -39 72 -77 72 -85 0 -9 -25 -29 -57 -45 -32 -16 -80 -43
-108 -61 -45 -28 -50 -30 -59 -14 -17 31 -69 83 -83 83 -7 0 -12 6 -10 13 1 6
-4 11 -12 9 -9 -2 -11 3 -7 14 5 14 2 16 -24 10 -19 -3 -29 -2 -25 4 3 6 2 10
-3 10 -5 0 -12 11 -14 25 -5 22 3 29 75 68 69 38 86 44 131 41 48 -2 55 -6
124 -72z m459 72 c-1 -1 -18 -9 -37 -19 -29 -15 -33 -15 -22 -3 10 13 10 17 0
21 -7 2 4 4 24 4 21 -1 36 -2 35 -3z m533 -28 c0 -12 -147 -106 -164 -106 -17
0 -14 5 14 22 19 11 58 36 85 54 48 31 65 39 65 30z m208 -60 c45 -28 82 -54
82 -58 0 -5 -20 -23 -45 -40 -33 -23 -42 -34 -32 -41 8 -6 6 -7 -6 -3 -10 3
-44 -7 -77 -24 -33 -17 -62 -30 -64 -30 -3 0 -28 23 -56 51 -27 27 -54 47 -60
44 -12 -7 -50 16 -50 31 0 28 186 130 220 120 3 0 43 -23 88 -50z m388 -7 c10
-12 51 -46 89 -74 39 -29 85 -68 103 -88 l33 -34 -38 -30 c-47 -37 -174 -116
-268 -167 -121 -65 -345 -201 -345 -208 0 -4 46 21 103 55 162 100 266 154
242 127 l-20 -23 20 11 c11 5 47 26 79 46 33 20 64 36 70 36 14 0 -121 -89
-162 -106 -20 -9 -30 -19 -26 -26 4 -6 3 -8 -4 -4 -6 3 -51 -20 -101 -51 -457
-295 -796 -493 -840 -493 -37 0 37 54 155 113 29 15 110 65 180 112 71 48 154
100 184 117 55 30 80 48 67 48 -16 0 -94 -44 -152 -85 -93 -66 -250 -163 -355
-217 -52 -28 -123 -68 -158 -91 -77 -49 -80 -48 -183 66 -89 98 -146 142 -165
126 -7 -6 -19 -9 -26 -6 -9 3 -6 7 7 13 11 4 41 23 66 41 26 18 77 47 115 64
91 41 223 117 256 147 14 13 31 22 36 19 5 -4 67 26 138 64 142 78 241 129
249 129 3 0 5 -15 5 -32 0 -18 8 -43 18 -55 23 -28 91 -73 111 -73 9 0 2 9
-17 20 -18 11 -37 32 -43 48 -6 15 -20 37 -31 49 -16 17 -19 28 -12 50 4 15 8
35 8 43 1 8 10 16 21 19 20 3 106 50 115 62 3 3 30 19 60 34 55 27 226 126
330 191 30 19 57 34 61 34 3 0 14 -10 25 -21z m-1926 -79 c3 0 -2 -5 -10 -11
-12 -8 -10 -10 9 -5 19 4 33 -4 63 -33 61 -62 52 -98 -36 -143 -194 -98 -184
-96 -251 -52 -30 20 -56 42 -59 49 -2 7 -21 18 -40 25 l-36 12 72 59 c107 87
181 112 288 99z m1231 -52 c156 -83 155 -111 -10 -190 l-104 -50 -37 44 c-21
24 -60 54 -89 67 -28 14 -51 28 -51 32 0 3 20 23 45 43 24 21 44 42 42 49 -1
7 5 12 13 12 8 1 29 8 45 18 44 24 59 21 146 -25z m-212 -12 c-25 -25 -85 -66
-97 -66 -14 0 75 67 92 69 5 1 7 -1 5 -3z m1161 -38 c0 -6 -7 -5 -15 2 -8 7
-15 17 -15 22 0 6 7 5 15 -2 8 -7 15 -17 15 -22z m-1853 6 c-16 -9 -31 -13
-34 -10 -3 3 5 10 18 15 37 15 47 12 16 -5z m1143 1 c0 -2 -10 -9 -22 -15 -22
-11 -22 -10 -4 4 21 17 26 19 26 11z m-1137 -67 c16 -11 46 -43 68 -70 29 -37
37 -54 30 -66 -12 -22 -86 -64 -95 -54 -4 4 -6 1 -4 -6 2 -8 -28 -30 -72 -53
l-75 -40 -22 27 c-12 15 -28 29 -36 30 -8 1 -23 10 -34 20 -10 11 -36 34 -58
52 -22 17 -33 32 -25 32 8 0 25 11 39 24 41 38 199 123 229 124 15 0 40 -9 55
-20z m535 5 c-14 -2 -31 -10 -37 -17 -8 -10 -4 -11 20 -8 29 4 40 1 117 -36
37 -17 92 -75 92 -96 0 -18 -104 -93 -141 -101 -25 -6 -36 -2 -57 18 -15 14
-57 41 -93 60 -61 32 -65 36 -51 51 10 9 12 16 5 16 -6 0 -21 -13 -33 -30 -27
-38 -40 -38 -40 -1 0 23 10 35 57 67 83 56 134 82 163 81 24 0 24 0 -2 -4z
m-1211 -83 c56 -28 103 -69 103 -91 0 -5 -28 -23 -62 -40 -35 -17 -93 -49
-130 -70 -36 -22 -71 -39 -76 -39 -5 0 -14 12 -21 28 -22 49 -65 104 -99 127
l-35 24 39 35 c22 20 53 43 69 51 44 23 135 12 212 -25z m340 -33 c-35 -34
-70 -58 -97 -66 -23 -7 -48 -15 -56 -18 -8 -3 -14 -1 -14 5 0 6 14 13 30 17
17 4 30 10 30 15 0 11 132 96 153 99 4 1 -17 -23 -46 -52z m1164 -22 c-24 -14
-46 -23 -48 -21 -5 5 67 45 82 45 6 1 -10 -11 -34 -24z m-467 -71 c28 -9 66
-25 84 -36 54 -33 41 -52 -83 -129 -147 -91 -157 -95 -189 -74 -15 10 -25 25
-24 34 2 9 -3 15 -11 13 -15 -3 -85 47 -77 56 4 3 20 -7 36 -23 16 -16 33 -25
37 -20 5 4 2 10 -6 13 -16 5 -72 57 -68 63 1 2 -3 -1 -9 -8 -16 -18 -20 -17
-43 16 l-21 29 50 31 c28 17 97 48 153 69 l102 38 9 -28 c7 -21 20 -31 60 -44z
m56 15 c13 -7 13 -8 0 -8 -8 0 -26 6 -40 15 l-25 15 25 -7 c14 -3 32 -10 40
-15z m-1450 -19 c11 -11 26 -20 33 -20 26 0 97 -70 97 -96 0 -13 -6 -24 -12
-25 -7 0 -44 -20 -83 -45 -38 -25 -89 -54 -113 -65 l-42 -20 -65 36 c-38 21
-62 41 -58 47 3 6 2 8 -4 5 -12 -7 -73 29 -73 43 0 15 155 127 192 139 30 9
65 16 96 20 6 0 21 -8 32 -19z m720 -10 c69 -44 97 -77 84 -98 -12 -19 -224
-132 -291 -156 -41 -14 -42 -14 -82 16 -23 16 -41 34 -41 38 0 15 -128 70
-147 64 -10 -4 7 11 37 32 77 53 206 106 228 94 9 -5 33 -16 52 -25 l35 -16
-24 21 c-27 23 -24 30 22 47 51 18 77 15 127 -17z m796 -6 c18 -14 18 -14 -6
-3 -31 14 -36 19 -24 19 6 0 19 -7 30 -16z m-439 -165 c48 -44 89 -84 91 -89
3 -9 -44 -47 -167 -136 l-85 -62 -19 24 c-27 35 -177 155 -209 168 -16 6 -28
13 -28 16 0 12 160 100 182 100 12 0 46 13 73 30 28 16 55 29 62 29 6 1 51
-35 100 -80z m-1416 -29 c96 -77 109 -102 62 -121 -16 -6 -58 -24 -94 -40 -88
-39 -120 -38 -181 7 -66 49 -123 124 -106 139 18 16 174 85 192 85 8 0 18 5
22 12 6 9 9 9 11 1 2 -6 44 -44 94 -83z m39 30 c14 -10 23 -21 20 -23 -3 -3
-18 6 -35 19 -35 28 -22 32 15 4z m570 -32 c105 -47 107 -49 121 -75 12 -22
11 -26 -11 -44 -14 -10 -29 -19 -34 -19 -4 0 -58 -25 -118 -55 l-110 -56 -54
42 c-30 23 -68 57 -84 75 -16 19 -35 34 -42 34 -17 0 118 89 177 116 55 26 60
25 155 -18z m-988 -90 c13 -24 25 -55 29 -69 6 -25 5 -25 -56 15 l-62 41 29
18 c15 11 28 23 28 28 0 18 10 8 32 -33z m-269 12 c-7 -25 -23 -27 -18 -2 2 9
4 18 4 20 1 1 5 2 10 2 5 0 7 -9 4 -20z m1677 -36 c89 -66 150 -124 150 -144
0 -12 -24 -30 -71 -55 -84 -44 -114 -42 -169 8 -19 17 -26 22 -16 10 34 -40 1
-24 -40 20 -57 60 -71 79 -53 72 10 -4 15 1 15 15 0 11 -3 20 -6 20 -11 -1
-40 -28 -40 -37 0 -12 62 -96 103 -140 17 -18 29 -34 26 -36 -2 -2 -57 -27
-122 -56 -118 -53 -142 -56 -154 -24 -4 9 -15 25 -25 35 -10 10 -16 23 -13 27
5 9 -71 84 -96 94 -25 10 33 49 162 107 67 30 156 72 198 92 42 20 79 37 82
38 4 0 35 -21 69 -46z m-1500 -19 c0 -18 68 -65 95 -65 12 0 26 -5 33 -12 9
-9 12 -8 12 5 0 28 16 20 80 -40 114 -105 114 -136 -2 -193 -44 -22 -93 -49
-110 -61 -16 -12 -38 -22 -48 -23 -10 -1 -31 -14 -46 -29 -16 -16 -30 -24 -32
-18 -2 6 -12 11 -22 11 -10 0 -50 33 -88 73 -84 86 -117 127 -103 127 6 0 11
5 11 10 0 6 -10 10 -22 10 -21 1 -19 4 17 36 l40 36 -43 -28 c-23 -15 -46 -24
-50 -20 -17 17 225 196 265 196 7 0 13 -7 13 -15z m715 -7 c16 16 17 16 7 -3
-9 -18 -2 -26 64 -69 80 -53 90 -72 52 -107 -29 -26 -81 -62 -131 -89 -22 -12
-36 -24 -33 -27 3 -3 21 4 41 16 20 11 42 21 48 21 7 -1 -10 -12 -36 -26 -26
-14 -52 -22 -58 -19 -5 4 -25 -5 -44 -19 -18 -14 -39 -26 -45 -26 -6 0 -34 21
-62 48 -30 27 -49 39 -44 28 5 -15 -40 20 -94 72 -3 3 3 2 13 -1 15 -6 16 -4
7 14 -6 11 -18 23 -26 26 -7 3 -11 9 -8 14 7 12 -3 11 -26 -1 -16 -9 -25 -4
-52 26 -62 67 -64 94 -4 49 20 -15 47 -27 61 -27 23 0 24 -2 8 -14 -62 -47 87
26 213 104 l47 30 42 -18 c40 -17 44 -17 60 -2z m1241 -77 c45 -28 133 -116
192 -195 52 -69 58 -88 24 -79 -10 2 -35 -5 -55 -17 -45 -27 -49 -37 -6 -15
17 9 35 15 42 12 6 -2 -41 -30 -104 -62 -62 -32 -166 -88 -229 -125 -63 -37
-142 -81 -175 -100 -56 -30 -58 -30 -30 -6 l30 26 -46 -21 c-54 -26 -68 -22
-100 22 l-24 34 36 -28 c43 -32 54 -33 98 -6 26 16 31 23 22 32 -9 9 -14 9
-20 -2 -6 -10 -24 1 -72 43 -35 31 -97 81 -137 113 -61 47 -73 60 -70 81 2 20
12 29 43 39 22 7 51 23 65 34 l25 20 -25 -6 c-21 -5 -22 -4 -7 5 9 6 21 9 26
5 8 -4 144 62 364 179 79 41 91 43 133 17z m-1066 -111 c0 -11 -7 -20 -15 -20
-17 0 -18 2 -9 24 9 23 24 20 24 -4z m-1180 -35 c19 -23 8 -26 -19 -4 -16 13
-18 19 -8 19 8 0 20 -7 27 -15z m1238 0 c-7 -7 43 -65 56 -65 17 0 106 -93
106 -110 0 -34 -131 -131 -184 -137 -23 -2 -46 3 -63 14 -15 10 -30 17 -33 17
-14 -4 -50 20 -100 65 -60 55 -68 59 -76 36 -4 -8 -10 -12 -16 -9 -15 9 11 33
66 61 28 14 80 45 115 69 35 24 74 44 87 44 12 0 26 5 29 10 3 6 9 10 12 10 4
0 4 -2 1 -5z m-1293 -35 c3 -6 -1 -7 -9 -4 -18 7 -21 14 -7 14 6 0 13 -4 16
-10z m796 -65 c40 -30 79 -55 87 -55 9 0 23 -6 31 -14 9 -8 59 -43 112 -78 87
-58 96 -67 93 -93 -4 -36 -5 -37 -94 -70 -41 -15 -122 -50 -179 -77 -119 -57
-111 -58 -206 24 -33 28 -95 75 -138 105 -42 30 -75 59 -72 63 3 5 0 12 -6 16
-8 4 -9 3 -5 -4 10 -17 2 -15 -40 10 -25 15 -32 23 -23 27 8 3 37 22 64 41 44
31 280 158 297 159 3 1 39 -24 79 -54z m821 -47 c-7 -7 -12 -8 -12 -2 0 14 12
26 19 19 2 -3 -1 -11 -7 -17z m8 -28 c0 -5 -5 -10 -11 -10 -5 0 -7 5 -4 10 3
6 8 10 11 10 2 0 4 -4 4 -10z m-9 -41 c6 -12 45 -58 86 -102 61 -65 72 -82 61
-92 -30 -28 -197 -135 -210 -135 -15 0 -74 46 -145 114 -24 22 -43 35 -43 29
0 -11 60 -65 163 -146 30 -25 53 -36 65 -33 21 7 160 95 150 96 -4 0 -30 -13
-58 -30 -55 -32 -127 -68 -96 -48 11 7 47 31 80 53 34 22 76 51 94 65 28 21
34 22 42 10 5 -8 8 -26 6 -40 -3 -14 -5 -28 -5 -31 -1 -4 -20 -17 -43 -29 -24
-12 -56 -34 -73 -49 -17 -14 -50 -35 -73 -45 -37 -17 -45 -18 -53 -5 -7 11 -9
10 -9 -5 0 -14 -3 -17 -11 -9 -6 6 -11 17 -13 24 -6 37 -22 58 -78 104 -34 28
-68 53 -77 56 -9 3 -17 11 -17 18 -1 6 -2 15 -3 21 0 5 -16 12 -35 16 -19 3
-37 11 -39 18 -7 17 109 100 184 133 35 15 78 35 94 45 38 23 42 23 56 -3z
m-386 -158 c27 -29 33 -40 18 -32 -24 12 -40 15 -30 4 4 -3 2 -12 -4 -20 -6
-7 -7 -13 -2 -13 5 0 18 -7 29 -16 10 -8 14 -13 8 -10 -6 3 -24 10 -39 16 -21
8 -25 13 -16 24 6 7 9 15 7 17 -2 2 -6 21 -9 43 -3 21 -5 37 -4 35 1 -3 20
-24 42 -48z m671 -48 c-8 -8 -75 65 -76 82 0 5 19 -9 42 -32 23 -23 39 -46 34
-50z m-586 -19 c0 -2 -9 0 -20 6 -11 6 -20 13 -20 16 0 2 9 0 20 -6 11 -6 20
-13 20 -16z m-99 -22 c70 -45 201 -147 237 -185 l33 -34 -31 -27 c-17 -14 -41
-26 -53 -26 -25 -1 -77 -31 -133 -78 l-39 -34 35 17 35 16 -25 -20 c-61 -49
-58 -50 -175 44 -59 47 -116 90 -127 96 -11 6 -17 13 -15 16 3 2 39 -18 81
-46 41 -28 79 -51 83 -51 10 0 -146 109 -177 123 -14 6 -28 16 -32 21 -10 15
12 52 46 77 32 24 197 119 207 119 3 0 25 -13 50 -28z m133 -8 c5 -14 4 -15
-9 -4 -17 14 -19 20 -6 20 5 0 12 -7 15 -16z m111 -114 c21 -22 37 -40 34 -40
-3 0 -23 18 -44 40 -21 22 -37 40 -34 40 3 0 23 -18 44 -40z m65 -71 c0 -6 -4
-7 -10 -4 -5 3 -10 11 -10 16 0 6 5 7 10 4 6 -3 10 -11 10 -16z m105 12 c-6
-5 -21 -11 -35 -15 -21 -5 -20 -3 5 9 35 17 42 18 30 6z m-295 -145 c0 -2 -8
-10 -17 -17 -16 -13 -17 -12 -4 4 13 16 21 21 21 13z"/>
<path d="M8290 4768 c-41 -15 -65 -27 -52 -24 15 3 22 -1 22 -12 0 -13 3 -13
14 4 8 11 33 26 56 34 22 7 43 17 46 22 7 12 -2 9 -86 -24z"/>
<path d="M8840 4790 c-9 -6 -10 -10 -3 -10 6 0 15 5 18 10 8 12 4 12 -15 0z"/>
<path d="M8648 4675 c-27 -20 -48 -38 -48 -41 0 -6 89 57 96 68 8 13 1 9 -48
-27z"/>
<path d="M7670 4690 c8 -5 20 -10 25 -10 6 0 3 5 -5 10 -8 5 -19 10 -25 10 -5
0 -3 -5 5 -10z"/>
<path d="M8365 4521 c-11 -5 -20 -14 -20 -21 0 -7 -6 -15 -14 -18 -9 -3 -11 0
-6 8 6 9 3 9 -15 0 -12 -6 -19 -14 -16 -17 3 -4 0 -13 -7 -21 -20 -25 42 11
82 47 35 31 34 36 -4 22z"/>
<path d="M8065 4330 c-3 -6 1 -7 9 -4 18 7 21 14 7 14 -6 0 -13 -4 -16 -10z"/>
<path d="M6440 4354 c0 -5 12 -18 27 -28 16 -12 24 -14 21 -6 -5 16 -48 46
-48 34z"/>
<path d="M6070 4350 c6 -11 16 -20 22 -20 6 0 3 9 -7 20 -10 11 -20 20 -22 20
-2 0 1 -9 7 -20z"/>
<path d="M5971 4107 c2 -1 13 -9 24 -17 19 -14 19 -14 6 3 -7 9 -18 17 -24 17
-6 0 -8 -1 -6 -3z"/>
<path d="M6046 4091 c55 -50 95 -81 79 -61 -28 34 -68 69 -79 70 -6 0 -6 -3 0
-9z"/>
<path d="M5723 4114 c-24 -14 -43 -27 -43 -29 0 -9 55 19 75 37 27 25 18 23
-32 -8z"/>
<path d="M6674 3434 c-49 -30 -96 -62 -104 -71 -8 -9 12 2 45 24 33 21 81 52
108 67 41 23 56 36 44 36 -2 0 -44 -25 -93 -56z"/>
<path d="M5280 3890 c0 -5 5 -10 11 -10 5 0 7 5 4 10 -3 6 -8 10 -11 10 -2 0
-4 -4 -4 -10z"/>
<path d="M5228 3878 c5 -5 16 -8 23 -6 8 3 3 7 -10 11 -17 4 -21 3 -13 -5z"/>
<path d="M5315 3820 c-13 -6 -15 -9 -5 -9 8 0 22 4 30 9 18 12 2 12 -25 0z"/>
<path d="M5890 3552 c0 -4 9 -13 20 -20 22 -13 27 -3 8 16 -14 14 -28 16 -28
4z"/>
<path d="M4420 3471 c0 -6 5 -13 10 -16 6 -3 10 1 10 9 0 9 -4 16 -10 16 -5 0
-10 -4 -10 -9z"/>
<path d="M4018 3313 c6 -2 18 -2 25 0 6 3 1 5 -13 5 -14 0 -19 -2 -12 -5z"/>
<path d="M3693 3198 c-13 -6 -23 -14 -23 -17 0 -4 33 -42 73 -85 l73 -79 27
18 c15 10 25 20 22 23 -3 3 -13 -2 -23 -12 -18 -16 -22 -13 -86 54 -36 39 -66
74 -66 79 0 4 10 13 23 19 12 6 18 11 12 11 -5 0 -20 -5 -32 -11z"/>
<path d="M4017 3085 c-37 -25 -67 -48 -67 -51 0 -6 3 -4 84 48 67 43 73 48 60
48 -5 0 -40 -20 -77 -45z"/>
<path d="M3870 3035 c-45 -33 -30 -32 18 0 20 14 32 25 27 25 -6 -1 -26 -12
-45 -25z"/>
<path d="M5875 2972 c-88 -47 -127 -73 -120 -80 3 -3 13 2 22 10 10 9 53 34
96 58 42 23 77 44 77 46 0 6 0 6 -75 -34z"/>
<path d="M5798 2965 c-20 -13 -78 -47 -130 -75 -51 -28 -82 -48 -68 -44 36 10
162 74 185 94 11 10 34 25 50 33 17 9 23 16 15 16 -8 0 -32 -11 -52 -24z"/>
<path d="M5685 2865 c-27 -13 -67 -31 -88 -40 -21 -9 -37 -19 -34 -21 6 -6
177 72 177 80 0 8 3 9 -55 -19z"/>
<path d="M5550 2780 c-9 -6 -10 -10 -3 -10 6 0 15 5 18 10 8 12 4 12 -15 0z"/>
<path d="M4625 3060 c-3 -6 1 -7 9 -4 18 7 21 14 7 14 -6 0 -13 -4 -16 -10z"/>
<path d="M4574 3022 c8 -14 86 -65 91 -60 5 5 -75 68 -87 68 -5 0 -7 -4 -4 -8z"/>
<path d="M3920 2931 c0 -5 7 -12 16 -15 14 -5 15 -4 4 9 -14 17 -20 19 -20 6z"/>
<path d="M4200 2736 c0 -2 8 -10 18 -17 15 -13 16 -12 3 4 -13 16 -21 21 -21
13z"/>
<path d="M7268 5480 c-36 -23 -46 -25 -41 -12 5 11 -5 7 -29 -13 -34 -29 -78
-84 -78 -98 0 -4 18 -7 41 -7 28 0 51 -8 73 -25 50 -38 53 -30 7 20 -39 43
-41 47 -27 67 9 12 34 34 57 50 31 21 48 26 72 21 31 -5 31 -5 12 10 -27 22
-33 21 -87 -13z"/>
<path d="M7590 5506 c0 -2 8 -10 18 -17 15 -13 16 -12 3 4 -13 16 -21 21 -21
13z"/>
<path d="M7020 5425 c-14 -8 -20 -14 -15 -14 6 0 21 6 35 14 14 8 21 14 15 14
-5 0 -21 -6 -35 -14z"/>
<path d="M6950 5395 c-14 -8 -20 -14 -15 -14 6 0 21 6 35 14 14 8 21 14 15 14
-5 0 -21 -6 -35 -14z"/>
<path d="M6760 5313 c-116 -52 -298 -123 -317 -123 -3 0 -1 5 2 10 3 6 5 10 3
10 -14 0 -206 -88 -202 -93 9 -9 -36 -29 -52 -23 -8 3 -13 2 -10 -3 3 -4 -61
-39 -142 -76 -81 -37 -167 -78 -192 -90 -430 -215 -543 -270 -585 -287 -27
-11 -90 -39 -140 -63 -142 -69 -325 -151 -380 -170 -27 -9 -63 -23 -79 -30
-16 -7 -36 -11 -44 -7 -10 3 -13 1 -8 -6 4 -7 3 -12 -3 -12 -5 0 -38 -13 -73
-29 -246 -112 -326 -150 -423 -198 -60 -30 -124 -66 -141 -78 -21 -16 -35 -20
-45 -14 -21 13 -106 11 -121 -4 -7 -7 -58 -36 -113 -63 -59 -29 -101 -57 -103
-66 -2 -12 26 -40 82 -85 47 -37 86 -70 86 -73 0 -3 -17 -12 -37 -19 -21 -7
-69 -33 -107 -57 -77 -49 -85 -49 -153 -2 -24 16 -43 25 -43 21 0 -4 -4 -1
-10 7 -5 8 -12 11 -16 7 -14 -14 32 -47 105 -77 l74 -30 54 41 c30 22 69 47
88 55 18 7 46 25 61 39 14 13 30 23 33 20 8 -4 181 62 195 75 4 5 5 13 2 18
-4 7 -23 2 -49 -13 -79 -42 -135 -59 -152 -45 -13 11 -14 10 -8 -6 6 -17 5
-17 -10 -5 -9 7 -15 17 -12 21 3 4 -3 14 -12 21 -12 10 -14 10 -9 2 4 -7 3
-13 -2 -13 -12 0 -33 25 -27 32 3 3 -2 11 -12 19 -11 9 -14 10 -9 2 14 -24
-11 -13 -36 16 l-26 28 92 47 c50 25 96 46 103 46 7 0 28 -10 47 -22 91 -59
109 -68 127 -68 35 0 170 59 324 140 83 44 248 130 368 191 119 62 216 114
214 115 -8 8 -133 -48 -372 -167 -143 -71 -270 -129 -282 -129 -12 0 -24 -4
-27 -9 -8 -13 -121 -66 -183 -86 l-52 -17 -35 28 c-32 26 -38 44 -15 44 5 0
146 68 314 150 167 83 307 150 310 150 25 0 524 224 750 337 99 49 230 111
290 137 61 26 119 53 130 59 63 35 298 147 340 162 28 11 60 25 73 33 12 8 25
13 27 10 3 -3 -21 -21 -52 -41 -32 -19 -76 -49 -98 -67 -21 -17 -142 -81 -267
-142 -125 -61 -226 -113 -224 -115 8 -9 467 218 536 265 19 13 63 39 98 59 34
19 62 41 62 48 0 14 176 103 295 150 194 75 256 100 318 131 61 31 80 45 60
44 -5 -1 -73 -31 -153 -67z m-334 -132 c-3 -5 -16 -11 -28 -14 -22 -6 -22 -5
-4 8 22 17 40 20 32 6z"/>
<path d="M7075 5324 l-30 -26 33 22 c17 12 32 23 32 26 0 7 -4 5 -35 -22z"/>
<path d="M6523 5245 c-18 -8 -33 -16 -33 -19 0 -6 51 14 65 26 13 11 5 10 -32
-7z"/>
<path d="M6810 5180 c-13 -8 -12 -10 3 -10 9 0 17 5 17 10 0 12 -1 12 -20 0z"/>
<path d="M7640 5150 l-25 -21 28 12 c15 7 27 16 27 21 0 11 -1 10 -30 -12z"/>
<path d="M7698 5083 c7 -3 16 -2 19 1 4 3 -2 6 -13 5 -11 0 -14 -3 -6 -6z"/>
<path d="M8870 5036 c0 -2 7 -7 16 -10 8 -3 12 -2 9 4 -6 10 -25 14 -25 6z"/>
<path d="M9140 4831 c50 -26 211 -84 217 -78 8 8 -29 25 -137 62 -110 39 -132
43 -80 16z"/>
<path d="M9390 4737 c14 -8 36 -17 50 -21 l25 -7 -25 14 c-14 8 -36 17 -50 21
l-25 7 25 -14z"/>
<path d="M5860 4680 c-66 -29 -75 -37 -62 -55 9 -14 71 -59 102 -75 l24 -13
-18 29 c-10 16 -30 42 -45 57 -16 17 -20 26 -10 22 10 -4 19 0 22 9 4 9 21 25
39 36 46 28 25 24 -52 -10z"/>
<path d="M5420 4624 c-80 -42 -235 -136 -299 -181 -2 -2 -2 -5 1 -8 3 -3 48
23 101 59 52 35 143 89 201 121 89 48 118 66 104 65 -2 0 -50 -25 -108 -56z"/>
<path d="M8753 4513 c-57 -31 -103 -60 -103 -65 0 -5 19 3 43 17 23 14 68 39
99 55 31 16 59 34 63 40 8 13 14 16 -102 -47z"/>
<path d="M8755 4480 c-93 -57 -151 -98 -97 -70 13 6 26 9 29 6 4 -3 -11 -13
-33 -22 -21 -9 -48 -20 -59 -26 -16 -7 -16 -5 4 11 32 28 17 26 -36 -4 -49
-30 -55 -39 -15 -25 l27 10 -24 -20 c-13 -11 -20 -20 -17 -20 8 0 188 94 234
122 50 31 30 34 -24 4 -80 -45 -59 -22 31 33 72 44 96 61 83 61 -2 0 -48 -27
-103 -60z"/>
<path d="M8600 4439 c-22 -18 -22 -19 -3 -10 12 6 25 16 28 21 9 15 3 12 -25
-11z"/>
<path d="M8905 4450 c-3 -6 1 -7 9 -4 18 7 21 14 7 14 -6 0 -13 -4 -16 -10z"/>
<path d="M8925 4433 c-11 -3 -24 -9 -29 -14 -8 -7 45 3 79 16 15 5 -27 4 -50
-2z"/>
<path d="M5010 4395 c-25 -13 -42 -24 -39 -25 10 0 99 40 99 45 0 9 -15 4 -60
-20z"/>
<path d="M8835 4390 c-3 -6 1 -7 9 -4 18 7 21 14 7 14 -6 0 -13 -4 -16 -10z"/>
<path d="M8800 4370 c-9 -6 -10 -10 -3 -10 6 0 15 5 18 10 8 12 4 12 -15 0z"/>
<path d="M10372 4365 c14 -8 52 -21 82 -29 31 -8 61 -18 68 -22 7 -4 8 -3 4 4
-4 7 -2 12 4 12 6 0 8 5 4 11 -4 8 -8 8 -13 0 -7 -10 -71 3 -134 28 -39 15
-47 13 -15 -4z"/>
<path d="M4935 4360 c-3 -6 1 -7 9 -4 18 7 21 14 7 14 -6 0 -13 -4 -16 -10z"/>
<path d="M4895 4150 c-3 -6 1 -7 9 -4 18 7 21 14 7 14 -6 0 -13 -4 -16 -10z"/>
<path d="M10213 4060 c-34 -14 -28 -21 7 -9 17 6 30 13 30 15 0 6 -12 4 -37
-6z"/>
<path d="M10045 4030 c-3 -5 -2 -10 4 -10 5 0 13 5 16 10 3 6 2 10 -4 10 -5 0
-13 -4 -16 -10z"/>
<path d="M10080 4020 c-19 -11 -31 -19 -27 -20 11 0 67 29 67 35 0 7 -1 7 -40
-15z"/>
<path d="M7400 3733 c-41 -19 -158 -91 -260 -158 -189 -125 -406 -257 -472
-287 -44 -20 -91 -94 -93 -147 -1 -42 3 -46 183 -169 65 -45 162 -119 216
-164 138 -117 193 -150 234 -144 18 3 65 28 105 57 111 82 139 99 154 99 11 0
9 -8 -8 -32 -15 -21 -24 -51 -27 -88 -4 -51 -2 -59 21 -77 20 -15 23 -23 14
-32 -24 -24 20 -10 73 24 30 19 64 35 75 35 11 0 27 5 35 11 12 9 12 10 -4 5
-16 -6 -17 -4 -5 10 53 65 345 213 420 214 13 0 63 23 299 138 28 13 35 23 37
47 1 19 -1 22 -4 8 -2 -12 -10 -26 -16 -31 -31 -25 -235 -105 -345 -137 -67
-19 -137 -42 -155 -51 -55 -28 -208 -120 -297 -178 -46 -31 -90 -56 -97 -56
-7 0 -19 16 -27 35 -37 88 50 194 256 311 34 20 79 45 98 56 19 11 96 56 170
99 129 74 250 129 288 129 27 0 90 -58 113 -103 22 -44 57 -87 70 -87 14 0
-11 54 -39 83 -36 38 -15 34 25 -5 18 -18 33 -27 33 -22 0 14 -156 154 -171
154 -7 0 -29 15 -48 33 -18 17 -31 27 -28 21 4 -7 -4 -14 -21 -17 -28 -6 -103
29 -172 82 -43 32 -147 100 -158 102 -7 2 -159 105 -277 188 -33 23 -58 43
-55 45 12 7 -24 36 -44 36 -11 0 -55 -17 -96 -37z m102 -23 c12 -30 39 -56
120 -115 56 -42 123 -88 148 -102 25 -14 62 -37 83 -50 l38 -24 -128 -85
c-135 -90 -249 -163 -448 -284 -66 -40 -158 -97 -205 -126 -47 -29 -94 -55
-106 -58 -15 -5 -42 9 -100 49 -73 51 -124 83 -261 169 l-53 33 29 44 c40 64
102 113 269 215 81 49 228 141 327 206 256 165 259 167 265 168 3 0 12 -18 22
-40z m153 -78 c54 -38 80 -60 55 -47 -26 14 -130 88 -130 92 0 6 17 -4 75 -45z
m340 -282 c31 -27 99 -70 110 -70 5 1 -6 15 -25 31 l-35 31 42 -21 c72 -36 71
-38 -64 -113 -56 -32 -133 -79 -170 -106 -37 -28 -122 -81 -188 -119 -139 -80
-317 -190 -388 -239 -72 -49 -139 -41 -161 20 -5 15 -9 17 -18 8 -15 -15 -28
-15 -28 -1 0 5 5 7 12 3 7 -4 8 -3 4 4 -4 6 -12 9 -19 6 -7 -2 -21 3 -30 13
-18 21 -18 21 173 147 145 96 476 286 499 286 6 0 11 4 11 9 0 5 34 34 75 65
41 31 82 67 91 81 l16 24 36 -21 c20 -11 46 -28 57 -38z m60 -146 c-24 -18
-83 -50 -73 -39 10 10 81 54 88 54 3 0 -4 -7 -15 -15z m-85 -48 c0 -2 -12 -11
-27 -20 l-28 -17 24 20 c23 21 31 25 31 17z"/>
<path d="M7083 2803 c9 -2 23 -2 30 0 6 3 -1 5 -18 5 -16 0 -22 -2 -12 -5z"/>
<path d="M7580 3720 c19 -11 40 -19 45 -19 6 0 -6 8 -25 19 -19 11 -39 19 -45
19 -5 0 6 -8 25 -19z"/>
<path d="M9710 3686 c-78 -44 -343 -202 -465 -277 -38 -24 -135 -88 -215 -143
-80 -55 -178 -122 -218 -149 -40 -27 -71 -51 -69 -54 6 -6 111 61 167 108 45
37 412 277 440 287 8 3 59 32 113 65 54 33 100 57 103 55 2 -3 19 9 38 26 18
17 68 49 110 71 70 36 101 57 79 54 -4 -1 -42 -20 -83 -43z"/>
<path d="M7680 3676 c0 -3 26 -19 58 -37 31 -18 77 -46 102 -64 65 -45 80 -51
40 -16 -33 29 -181 121 -194 121 -3 0 -6 -2 -6 -4z"/>
<path d="M10150 3637 c-25 -11 -51 -27 -58 -34 -7 -7 -20 -13 -28 -13 -8 0
-13 -3 -13 -7 3 -19 -2 -27 -9 -15 -7 10 -16 9 -43 -5 -25 -13 -30 -18 -16
-21 9 -2 14 -8 11 -14 -3 -5 27 7 67 28 41 21 76 42 77 46 2 5 20 20 40 33 45
30 32 31 -28 2z"/>
<path d="M7921 3527 c12 -14 282 -188 285 -184 3 2 -44 36 -103 74 -113 73
-192 121 -182 110z"/>
<path d="M3138 3353 c-52 -32 -56 -37 -40 -49 14 -10 18 -10 25 4 5 9 25 32
45 49 46 41 42 40 -30 -4z"/>
<path d="M2577 3303 c28 -26 77 -64 108 -83 171 -106 397 -283 550 -430 50
-48 116 -103 147 -123 73 -46 170 -124 382 -307 240 -207 384 -322 396 -315 5
3 34 -14 63 -37 30 -24 89 -69 133 -100 43 -32 99 -74 124 -94 36 -29 38 -30
10 -4 -81 74 -222 185 -355 280 -115 81 -245 185 -415 331 -74 63 -216 180
-315 259 -99 80 -225 184 -281 231 -106 92 -314 245 -399 293 -27 16 -84 55
-125 88 -69 55 -71 56 -23 11z"/>
<path d="M3202 3212 c72 -61 158 -117 158 -102 0 9 -172 130 -185 130 -3 0 9
-13 27 -28z"/>
<path d="M8790 3064 c-30 -14 -73 -37 -94 -52 -27 -19 -41 -23 -43 -15 -3 8
-24 -3 -56 -30 -59 -48 -70 -61 -57 -65 5 -2 6 -10 3 -18 -6 -16 12 -20 22 -4
6 9 54 42 223 150 45 29 82 54 82 56 0 9 -29 1 -80 -22z"/>
<path d="M3460 3019 c119 -112 199 -181 454 -388 96 -77 140 -115 221 -190 27
-25 41 -35 30 -21 -44 56 -105 116 -190 183 -49 40 -130 107 -180 151 -49 44
-133 113 -185 154 -52 41 -117 93 -145 115 l-50 39 45 -43z"/>
<path d="M7950 2839 c-63 -20 -95 -37 -86 -46 2 -2 31 5 65 17 104 35 184 25
269 -33 36 -24 42 -26 33 -9 -6 10 -8 22 -4 25 11 11 -112 59 -162 62 -32 3
-73 -3 -115 -16z m265 -47 c-3 -3 -11 0 -18 7 -9 10 -8 11 6 5 10 -3 15 -9 12
-12z"/>
<path d="M8160 2854 c0 -7 52 -25 57 -20 2 2 -10 8 -26 14 -17 6 -31 9 -31 6z"/>
<path d="M8125 2680 c-3 -6 1 -7 9 -4 18 7 21 14 7 14 -6 0 -13 -4 -16 -10z"/>
<path d="M7985 2609 c-61 -50 -80 -70 -40 -41 40 29 101 81 95 82 -3 0 -28
-18 -55 -41z"/>
<path d="M7400 2285 c-27 -32 -228 -161 -415 -265 -116 -65 -275 -173 -268
-183 3 -5 0 -8 -8 -5 -7 2 -46 -16 -85 -41 -258 -165 -303 -195 -297 -204 3
-6 1 -7 -6 -3 -12 8 -78 -26 -146 -76 -22 -16 -105 -71 -185 -123 -163 -106
-210 -140 -132 -95 28 16 52 28 52 26 0 -3 -31 -27 -70 -55 -38 -28 -70 -54
-70 -57 0 -7 0 -7 192 120 75 50 191 125 258 166 67 41 167 109 223 151 56 41
146 101 200 133 53 31 97 63 97 71 0 18 37 39 42 24 4 -13 92 37 241 138 88
60 152 95 160 87 6 -6 160 91 219 137 20 17 35 37 34 46 -4 23 -20 27 -36 8z
m-130 -119 c0 -2 -18 -15 -40 -30 -22 -14 -40 -23 -40 -18 0 4 17 18 38 30 39
23 42 24 42 18z m-301 -180 c-9 -8 -93 -48 -87 -41 15 16 63 44 77 44 8 1 12
-1 10 -3z"/>
<path d="M7165 2080 c-3 -5 -1 -10 4 -10 6 0 11 5 11 10 0 6 -2 10 -4 10 -3 0
-8 -4 -11 -10z"/>
<path d="M7154 2044 c-18 -14 -18 -15 4 -4 12 6 22 13 22 15 0 8 -5 6 -26 -11z"/>
<path d="M7104 2014 c-18 -14 -18 -15 4 -4 12 6 22 13 22 15 0 8 -5 6 -26 -11z"/>
<path d="M4210 1985 c19 -19 36 -35 39 -35 3 0 -10 16 -29 35 -19 19 -36 35
-39 35 -3 0 10 -16 29 -35z"/>
<path d="M6650 1709 c0 -5 5 -7 10 -4 6 3 10 8 10 11 0 2 -4 4 -10 4 -5 0 -10
-5 -10 -11z"/>
<path d="M6533 1623 c-29 -20 -51 -38 -49 -41 3 -2 30 14 62 37 31 23 53 41
48 41 -5 0 -33 -17 -61 -37z"/>
<path d="M4900 1526 c36 -37 74 -72 85 -78 27 -14 -38 54 -100 105 -47 38 -47
37 15 -27z"/>
<path d="M5047 1395 c38 -53 241 -245 260 -245 14 1 10 8 -17 32 -19 17 -87
78 -150 137 -63 58 -105 93 -93 76z"/>
<path d="M6025 1310 c-3 -6 1 -7 9 -4 18 7 21 14 7 14 -6 0 -13 -4 -16 -10z"/>
<path d="M5900 1239 c-58 -34 -145 -83 -195 -110 -91 -49 -103 -65 -23 -30 56
24 328 188 328 198 0 6 -5 3 -110 -58z"/>
<path d="M5275 1265 c52 -47 264 -215 269 -215 3 0 6 7 6 15 0 8 5 15 10 15 6
0 10 5 10 10 0 6 -7 10 -15 10 -14 0 -47 21 -225 140 -73 49 -92 57 -55 25z"/>
<path d="M5170 1146 c0 -2 8 -10 18 -17 15 -13 16 -12 3 4 -13 16 -21 21 -21
13z"/>
<path d="M5320 1095 c13 -16 120 -69 125 -63 2 2 -28 20 -66 40 -39 20 -65 30
-59 23z"/>
<path d="M5687 1031 c-41 -26 -46 -36 -10 -17 17 9 35 20 38 26 8 13 6 12 -28
-9z"/>
<path d="M5380 1035 c0 -2 26 -16 58 -31 31 -15 60 -29 65 -31 4 -2 7 -2 7 1
0 6 -66 41 -105 56 -14 5 -25 7 -25 5z"/>
</g>
</svg>
